  <svg width="504" height="42" viewBox="0 0 504 42" fill="none" xmlns="http://www.w3.org/2000/svg">
  <defs>
    <style>
      .cls-1, .cls-2, .cls-3 {
        stroke-width: 0px;
      }

      .cls-1, .cls-4, .cls-3 {
        fill: #54585a;
      }

      .cls-5 {
        clip-path: url(#clippath-2);
      }

      .cls-6 {
        clip-path: url(#clippath-6);
      }

      .cls-2, .cls-7, .cls-8, .cls-9, .cls-10, .cls-11, .cls-12 {
        fill: none;
      }

      .cls-13 {
        clip-path: url(#clippath-7);
      }

      .cls-14 {
        clip-path: url(#clippath-1);
      }

      .cls-15 {
        clip-path: url(#clippath-4);
      }

      .cls-7, .cls-8, .cls-9, .cls-4, .cls-10, .cls-11, .cls-12 {
        stroke: #54585a;
      }

      .cls-7, .cls-8, .cls-12 {
        stroke-linecap: round;
      }

      .cls-8 {
        stroke-linejoin: round;
      }

      .cls-8, .cls-11, .cls-12 {
        stroke-width: 1.1px;
      }

      .cls-16 {
        clip-path: url(#clippath);
      }

      .cls-17 {
        clip-path: url(#clippath-3);
      }

      .cls-18 {
        clip-path: url(#clippath-8);
      }

      .cls-10 {
        stroke-width: .8px;
      }

      .cls-11 {
        stroke-linecap: square;
      }

      .cls-19 {
        clip-path: url(#clippath-5);
      }

      .cls-3 {
        fill-rule: evenodd;
      }
    </style>
    <clipPath id="clippath">
      <rect class="cls-2" x="53.2" y="14.9" width="20" height="12.1"/>
    </clipPath>
    <clipPath id="clippath-1">
      <rect class="cls-2" x="96.2" y="11" width="17.7" height="20"/>
    </clipPath>
    <clipPath id="clippath-2">
      <rect class="cls-2" x="15.2" y="11" width="17.7" height="20"/>
    </clipPath>
    <clipPath id="clippath-3">
      <rect class="cls-2" x="138.5" y="11.2" width="17" height="19.5"/>
    </clipPath>
    <clipPath id="clippath-4">
      <rect class="cls-2" x="179.7" y="9" width="18.6" height="20"/>
    </clipPath>
    <clipPath id="clippath-5">
      <rect class="cls-2" x="221" y="12.3" width="20" height="17.4"/>
    </clipPath>
    <clipPath id="clippath-6">
      <rect class="cls-2" x="347" y="11.1" width="20" height="19.8"/>
    </clipPath>
    <clipPath id="clippath-7">
      <rect class="cls-2" x="389" y="12" width="20" height="18"/>
    </clipPath>
    <clipPath id="clippath-8">
      <rect class="cls-2" x="431" y="14.6" width="20" height="12.8"/>
    </clipPath>
  </defs>
  <g class="cls-16">
    <path class="cls-3" d="M69,16v8.1h-11.6v-8.2h11.6ZM57.4,25.1h11.9l.3.2,1.3.8h-15l1.1-.7.4-.3ZM68.9,14.9h-11.5c-.3,0-.5.1-.7.3s-.3.4-.3.7v8.6l-2.9,1.8c-.3.2-.3.8,0,.8h19.4c.4,0,.4-.6,0-.8l-3-1.9v-8.5c0-.3,0-.5-.3-.7-.2-.2-.4-.3-.7-.3ZM62.2,17.7c.3-.3.7-.4,1.1-.4s.8.2,1.1.4c.3.3.4.7.4,1.1v.6h0c0,0,.2.1.3.2,0,.1.2.2.2.3s0,.2,0,.4v1.6c0,.1,0,.2,0,.3,0,.1,0,.2-.2.3,0,.1-.2.2-.3.2s-.2.1-.3.1h-2.5c0,0-.2,0-.3-.1,0,0-.2-.1-.3-.2s-.2-.2-.2-.3,0-.2,0-.3v-1.7c0-.1,0-.2,0-.3,0-.1,0-.2.2-.3,0-.1.2-.2.3-.2h.2v-.6c-.1-.5,0-.9.3-1.1ZM63.8,18.7v.6h-1v-.6c0-.1,0-.3,0-.4,0-.1.2-.1.4-.1s.3.1.4.1c0,.2,0,.3,0,.4ZM64.4,20.3h-2.3v1.5h2.3v-1.5Z"/>
  </g>
  <g class="cls-14">
    <g>
      <path class="cls-1" d="M105,12.1c.6.3,1.3.6,2,.9,1,.4,2.1.7,3.2.9.9.2,1.7.3,2.6.4v.9c0,1.6-.2,3.1-.6,4.6-.4,2-1.2,3.9-2.4,5.5-1.3,1.9-3,3.4-4.9,4.5-2-1.1-3.7-2.6-4.9-4.5-1.1-1.7-1.9-3.6-2.4-5.5-.4-1.5-.5-3-.5-4.6v-1c.8-.1,1.7-.2,2.6-.3,1.1-.2,2.2-.5,3.3-.9.7-.3,1.4-.6,2-.9h0ZM105,10.9c-.7.4-1.5.8-2.3,1.1-1,.4-2,.7-3.1.9s-2.2.3-3.3.4c0,.6,0,1.3,0,1.9,0,1.6.2,3.2.6,4.8.5,2.1,1.3,4.1,2.5,5.9,1.4,2.2,3.4,3.9,5.7,5.1,2.3-1.2,4.3-3,5.7-5.1,1.2-1.8,2.1-3.8,2.5-5.9.3-1.6.5-3.2.6-4.8,0-.6,0-1.3,0-1.9-1.1,0-2.2-.1-3.3-.4-1.1-.2-2.1-.5-3.1-.9-.7-.3-1.5-.6-2.3-1.1Z"/>
      <path class="cls-1" d="M100.8,17.9v1h1.2v.9h-1.2v2h-1.1v-5h2.5v1h-1.4Z"/>
      <path class="cls-4" d="M102.9,21.3v-4h.9c.3,0,.5,0,.8.1.2.1.3.2.4.4h0c0,.2.2.4.3.6h0c0,.3,0,.6,0,.9s0,.6,0,.9h0c0,.2,0,.4-.2.5h0c0,.2-.3.3-.5.4,0,.1-.3.1-.4.1,0,0,.2-.1.4-.1.2-.1.4-.3.5-.4h0c.2-.4.3-.9.3-1.3s0-1-.3-1.4h0c0-.2-.3-.4-.5-.5s-.4-.2-.6-.2h-.7v4h-.4Z"/>
      <path class="cls-1" d="M106.4,21.8v-5h1.1v5h-1.1Z"/>
      <path class="cls-1" d="M110.8,21.8c-.3.1-.5.2-.8.2s-.6-.1-.8-.2c-.3-.1-.5-.3-.6-.6-.2-.2-.3-.5-.4-.8-.2-.7-.2-1.4,0-2.1,0-.3.2-.6.4-.8.2-.2.4-.4.6-.6.3-.1.5-.2.8-.2s.6,0,.8.2c.2.1.4.3.6.4l-.6.8c0-.1-.2-.2-.3-.3,0-.1-.2-.1-.4-.1s-.3.1-.4.1c0,.1-.2.2-.2.3,0,.2,0,.3-.2.5s0,.4,0,.6,0,.4,0,.6c0,.2,0,.3.2.5,0,.1.2.2.3.3,0,.1.2.1.4.1s.3,0,.4-.1.2-.2.2-.3l.6.8c-.2.4-.4.6-.6.7Z"/>
    </g>
  </g>
  <g class="cls-5">
    <path class="cls-1" d="M24,12.1c.6.3,1.3.6,2,.9,1,.4,2.1.7,3.2.9.9.2,1.7.3,2.6.4v.9c0,1.6-.2,3.1-.6,4.6-.4,2-1.2,3.9-2.4,5.5-1.3,1.9-3,3.4-4.9,4.5-2-1.1-3.7-2.6-4.9-4.5-1.1-1.7-1.9-3.6-2.4-5.5-.4-1.5-.5-3-.5-4.6v-1c.8-.1,1.7-.2,2.6-.3,1.1-.2,2.2-.5,3.3-.9.7-.3,1.4-.6,2-.9h0ZM24,10.9c-.7.4-1.5.8-2.3,1.1-1,.4-2,.7-3.1.9s-2.2.3-3.3.4c0,.6,0,1.3,0,1.9,0,1.6.2,3.2.6,4.8.5,2.1,1.3,4.1,2.5,5.9,1.4,2.2,3.4,3.9,5.7,5.1,2.3-1.2,4.3-3,5.7-5.1,1.2-1.8,2.1-3.8,2.5-5.9.3-1.6.5-3.2.6-4.8,0-.6,0-1.3,0-1.9-1.1,0-2.2-.1-3.3-.4-1.1-.2-2.1-.5-3.1-.9-.7-.3-1.5-.6-2.3-1.1Z"/>
  </g>
  <g class="cls-17">
    <g>
      <path class="cls-7" d="M141.4,19.6h7.7"/>
      <path class="cls-7" d="M141.4,22.4h7.7"/>
      <path class="cls-7" d="M141.4,25.3h7.7"/>
      <path class="cls-1" d="M150.5,12.2h.2c.1,0,.1.1.2.1q.1.1.1.2v14c0,.1-.1.1-.1.2q-.1.1-.2.1h-10.9c-.1,0-.1-.1-.2-.1q-.1-.1-.1-.2v-9.8l4-4.6h7ZM150.5,11.2h-7.5l-4.6,5.2v10c0,.4.2.8.5,1.1.3.3.7.5,1.1.5h10.5c.4,0,.8-.2,1.1-.5s.5-.7.5-1.1v-13.6c0-.2,0-.4-.1-.6-.1-.2-.2-.4-.3-.5s-.3-.3-.5-.3c-.3,0-.5-.2-.7-.2h0Z"/>
      <path class="cls-9" d="M152.7,13.4h.7c.4,0,.8.2,1.1.5s.5.7.5,1.1h0v13.7c0,.4-.2.8-.5,1.1-.3.3-.7.5-1.1.5h-10.6c-.9,0-1.2-.7-1.2-1.6v-.3"/>
      <path class="cls-9" d="M143.6,11.4v4.2c0,.2,0,.4-.1.6-.1.2-.2.3-.3.5-.1.1-.3.2-.5.3-.2.1-.4.1-.6.1h-3.1"/>
    </g>
  </g>
  <g class="cls-15">
    <g>
      <path class="cls-7" d="M188.5,9.7v3.2M186.5,10v2.9M190.5,9.9v3"/>
      <path class="cls-9" d="M181.7,17.1c-.9,1.3-1.3,3-1,4.6s1.1,3,2.5,4v1.1c0,.4.2.8.5,1.2.3.3.7.5,1.2.5h.8c.4,0,.8-.2,1.1-.4.3-.3.5-.7.5-1.1h1.8c0,.4.2.8.5,1.1.3.3.7.4,1.1.4h.9c.4,0,.8-.2,1.2-.5.3-.3.5-.7.5-1.2v-.8c1-.6,1.7-1.4,2.3-2.4h.7c.2,0,.4,0,.6-.1.2-.1.4-.2.5-.4.2-.2.3-.3.4-.5.1-.2.1-.4.1-.6v-2c0-.4-.2-.8-.5-1.2-.3-.3-.7-.5-1.2-.5h-.3c-.2-.4-.3-.8-.6-1.1"/>
      <path class="cls-4" d="M193.4,18.7c0,.1-.1.2-.2.2s-.2-.1-.2-.2.1-.2.2-.2.2.1.2.2Z"/>
      <path class="cls-9" d="M195.4,15.4c0-3.3-3.1-5.9-6.9-5.9s-6.9,2.6-6.9,5.9h13.8Z"/>
      <path class="cls-9" d="M180.9,15.4h15.4c.4,0,.7.4.7.8s-.3.8-.7.8h-15.4c-.4,0-.7-.4-.7-.8s.3-.8.7-.8Z"/>
      <path class="cls-1" d="M188.4,18.5h.4v.5c.2,0,.4,0,.6.1.2.1.3.2.4.3l-.5.7q-.1-.1-.2-.2c-.1,0-.2-.1-.3-.1s-.2,0-.3.1h-.1v.5c0,.1.1.1.1.1h.1c0,.1.2.2.2.2l.3.2c.1.1.2.1.3.2s.1.2.2.3c.1.1.1.3.1.4,0,.2,0,.3-.1.5,0,.1-.1.3-.2.4-.1.1-.2.2-.3.3-.1.1-.2.1-.4.1v.5h-.4v-.5c-.2,0-.4-.1-.6-.1-.2-.1-.3-.2-.5-.3l.5-.7c.1.1.2.2.3.2.1.1.2.1.3.1h.1s.1,0,.1-.1h.1v-.5c0-.1-.1-.1-.1-.1-.1-.1-.3-.2-.4-.2-.1-.1-.2-.1-.3-.2s-.2-.1-.2-.2c-.1-.1-.1-.2-.2-.3,0-.1-.1-.3-.1-.4,0-.2,0-.3.1-.5,0-.1.1-.3.2-.4.1-.1.2-.2.3-.2.1-.1.2-.1.4-.1v-.6Z"/>
    </g>
  </g>
  <g class="cls-19">
    <g>
      <path class="cls-1" d="M231,13.6l7.2,6h-1.8v9.1h-10.7s-.1,0-.1-.1c0,0,0-.1-.1-.1h0v-9h-1.8l7.3-5.9h0ZM231,12.3l-10,8.3h3.6v7.9c0,.2,0,.3.1.5s.2.3.3.4.3.2.4.3c.2.1.3.1.5.1h10.9c.2,0,.4-.1.5-.2s.2-.3.2-.5v-8.4h3.6l-10.1-8.4h0Z"/>
      <path class="cls-1" d="M232.5,23.1v5.5h-3.1v-5.6h3.1ZM232.5,22.1h-3c-.3,0-.5.1-.7.3-.2.2-.3.4-.3.7v6.5h5.1v-6.5c0-.3-.1-.5-.3-.7-.2-.2-.5-.3-.8-.3h0Z"/>
    </g>
  </g>
  <path class="cls-1" d="M280.4,25.4h-15.1v-9.1c0-.9.7-1.6,1.6-1.6h11.9c.9,0,1.6.7,1.6,1.6v9.1ZM265.9,24.7h13.7v-8.4c0-.5-.4-.9-.9-.9h-11.9c-.5,0-.9.4-.9.9v8.4h0Z"/>
  <path class="cls-1" d="M281.7,27.4h-17.3c-.6,0-1.1-.4-1.3-.9-.1-.3-.1-.7.1-1s.4-.6.8-.7h18.2c.5.2.9.7.9,1.3-.1.7-.7,1.3-1.4,1.3h0ZM264.1,25.4c-.1.1-.3.2-.3.3-.1.2-.1.3,0,.5.1.3.3.4.6.4h17.3c.4,0,.6-.3.6-.7s-.1-.5-.4-.6h-17.8Z"/>
  <path class="cls-1" d="M277.5,23.9h-9.4c-.7,0-1.2-.5-1.2-1.2v-5.2c0-.7.5-1.2,1.2-1.2h9.4c.7,0,1.2.5,1.2,1.2v5.2c0,.7-.5,1.2-1.2,1.2ZM268.1,17c-.3,0-.5.2-.5.5v5.2c0,.3.2.5.5.5h9.4c.3,0,.5-.2.5-.5v-5.2c0-.3-.2-.5-.5-.5h-9.4Z"/>
  <path class="cls-1" d="M276.9,23.1h-.7v-4.8h-6.7v4.8h-.7v-5.5h8.1v5.5h0Z"/>
  <path class="cls-1" d="M275.1,19.4h-4.4v.7h4.4v-.7Z"/>
  <path class="cls-1" d="M275.1,20.9h-4.4v.7h4.4v-.7Z"/>
  <path class="cls-1" d="M323.4,15.8c.4,0,.8.4.8.8v8.8c0,.4-.4.8-.8.8h-16.8c-.4,0-.8-.4-.8-.8v-8.8c0-.4.4-.8.8-.8,0,0,16.8,0,16.8,0ZM323.4,15h-16.8c-.9,0-1.6.7-1.6,1.6v8.8c0,.9.7,1.6,1.6,1.6h16.8c.9,0,1.6-.7,1.6-1.6v-8.8c0-.9-.7-1.6-1.6-1.6Z"/>
  <path class="cls-3" d="M313.5,19.3l-.7,4.3h1.1l.7-4.3h-1.1Z"/>
  <path class="cls-3" d="M316.8,21c-.4-.2-.6-.3-.6-.5s.2-.4.6-.4.6.1.8.2h.1v-.9c-.1-.1-.5-.2-.9-.2-1.1,0-1.8.6-1.9,1.4,0,.6.5,1,1,1.2.4.2.6.4.6.5,0,.3-.3.4-.6.4s-.7-.1-1-.2h-.1c0-.1-.1.9-.1.9.3.1.7.2,1.2.2,1.1,0,1.9-.6,1.9-1.5s-.3-.8-1-1.1"/>
  <path class="cls-3" d="M319.3,22.1c.1-.2.4-1.2.4-1.2,0,0,.1-.2.1-.4v.4c.1,0,.3,1,.3,1.2h-.8ZM320.7,19.3h-.8c-.3,0-.5.1-.6.4l-1.6,3.9h1.1s.2-.5.2-.6h1.4c0,.1.1.6.1.6h1l-.8-4.3h0Z"/>
  <path class="cls-3" d="M311.9,19.3l-1.1,2.9v-.6c-.1,0-.5-2-.5-2-.1-.3-.3-.4-.5-.4h-1.8c.4.2.8.4,1.1.6l1,3.7h1.2l1.7-4.3h-1.1Z"/>
  <g class="cls-6">
    <g>
      <path class="cls-1" d="M357,12.2c4.9,0,8.9,4,8.9,8.8s-4,8.8-8.9,8.8-8.9-4-8.9-8.8,4-8.8,8.9-8.8ZM357,11.1c-5.5,0-10,4.4-10,9.9s4.5,9.9,10,9.9,10-4.4,10-9.9-4.5-9.9-10-9.9Z"/>
      <path class="cls-8" d="M357,13.6v8.7l6.2-.9"/>
    </g>
  </g>
  <g class="cls-13">
    <g>
      <path class="cls-1" d="M406.9,14.9c.6,0,1.1.5,1.1,1.1v11.9c0,.6-.5,1.1-1.1,1.1h-15.7c-.6,0-1.1-.5-1.1-1.1v-11.9c0-.6.5-1.1,1.1-1.1h15.7ZM406.9,13.9h-15.7c-1.2,0-2.1.9-2.1,2.1v11.9c0,1.2,1,2.1,2.1,2.1h15.7c1.2,0,2.1-1,2.1-2.1v-11.9c0-1.2-1-2.1-2.1-2.1h0Z"/>
      <path class="cls-12" d="M393.7,12.5v3.7"/>
      <path class="cls-12" d="M404.3,12.5v3.7"/>
      <path class="cls-11" d="M392.6,19.6h12.9"/>
      <path class="cls-11" d="M392.6,21.9h12.9"/>
      <path class="cls-11" d="M392.6,24.2h12.9"/>
      <path class="cls-11" d="M392.6,26.5h12.9"/>
    </g>
  </g>
  <g class="cls-18">
    <g>
      <path class="cls-10" d="M445.5,16.8h-9.5c-.5,0-.8.4-.8.8v5.1c0,.5.4.8.8.8h9.5c.5,0,.8-.4.8-.8v-5.1c.1-.5-.3-.8-.8-.8Z"/>
      <path class="cls-1" d="M447.3,15.3c.4,0,.6.3.6.6v8.7h-14.4v-8.6c0-.4.3-.6.6-.6h13.2ZM447.3,14.6h-13.1c-.8,0-1.4.6-1.4,1.4v9.5h15.9v-9.5c0-.8-.6-1.4-1.4-1.4h0Z"/>
      <path class="cls-1" d="M450,25.5c.1.1.1.3.1.5,0,.3-.2.6-.2.6h-17.9s-.1-.1-.2-.3c-.1-.3,0-.6.1-.8,0,0,18.1,0,18.1,0ZM450.3,24.6h-18.6c-.5.3-.8,1.1-.6,1.8.1.6.5,1,1,1h17.9c.6,0,1-.6,1-1.4s-.3-1.2-.7-1.4Z"/>
    </g>
  </g>
  <path class="cls-1" d="M491,19h-6v1h6v-1Z"/>
  <path class="cls-1" d="M481,15h-6v1h6v-1Z"/>
  <path class="cls-1" d="M491,17h-16v1h16v-1Z"/>
  <path class="cls-1" d="M493,13v8h-20v-8h20ZM494,12h-22v10h22v-10Z"/>
  <path class="cls-1" d="M485,24v2h1.2l-3.2,2.7-3.2-2.7h1.2v-2h4ZM486,23h-6v2h-3l6,5,6-5h-3v-2Z"/>
  <g>
    <path class="cls-1" d="M27.5,18.1c-.1-.1-.3-.2-.5-.2h-.8v-1.3c0-.6-.2-1.1-.7-1.5-.4-.4-1-.7-1.5-.7s-1.1.2-1.5.7c-.4.4-.7.9-.7,1.5v1.3h-.8c-.2,0-.4,0-.5.2-.1.1-.2.3-.2.5v5.2c0,.2,0,.4.2.5.1.1.3.2.5.2h5.9c.2,0,.4,0,.5-.2.1-.1.2-.3.2-.5v-5.2c0-.2,0-.4-.2-.5ZM25.3,17.9h-2.6v-1.3c0-.3.1-.7.4-.9.2-.3.5-.4.9-.4s.6.1.9.4c.2.2.4.6.4.9v1.3ZM25.3,18.8h1.5v4.8h-5.6v-4.8h4.1Z"/>
    <path class="cls-1" d="M23.5,21.4v.7c0,.2.1.3.3.3h.3c.2,0,.3-.1.3-.3v-.7c.2-.1.3-.3.3-.6,0-.4-.3-.7-.7-.7s-.7.3-.7.7.1.4.3.6Z"/>
  </g>
</svg>