<svg width="50" height="31" viewBox="0 0 50 31" fill="none" xmlns="http://www.w3.org/2000/svg">
<g clip-path="url(#clip0_2166_11393)">
<path d="M44.5861 18.0898V18.6601H44.4597V18.2253H44.4126L44.47 18.0898H44.5861Z" fill="white"/>
<path d="M44.8765 18.2661C44.8782 18.296 44.886 18.3254 44.8994 18.3524C44.9129 18.3793 44.9316 18.4034 44.9546 18.4232C44.9776 18.443 45.0044 18.458 45.0334 18.4675C45.0624 18.477 45.093 18.4807 45.1234 18.4784C45.1756 18.4791 45.2268 18.4645 45.2705 18.4366C45.1935 18.6285 44.9913 18.5495 44.9488 18.5359L44.8948 18.6398C44.9615 18.7053 45.4049 18.7528 45.4049 18.3327C45.405 18.2962 45.3979 18.26 45.3838 18.2263C45.3697 18.1925 45.3491 18.1618 45.3229 18.1359C45.2968 18.11 45.2657 18.0894 45.2315 18.0753C45.1973 18.0612 45.1606 18.0539 45.1234 18.0538V18.1554C45.1403 18.1516 45.1577 18.1516 45.1746 18.1554C45.1914 18.1592 45.2071 18.1666 45.2206 18.1772C45.2341 18.1878 45.245 18.2012 45.2525 18.2165C45.26 18.2318 45.2638 18.2485 45.2638 18.2655C45.2638 18.2825 45.26 18.2992 45.2525 18.3145C45.245 18.3298 45.2341 18.3432 45.2206 18.3538C45.2071 18.3643 45.1914 18.3718 45.1746 18.3756C45.1577 18.3794 45.1403 18.3794 45.1234 18.3756C45.1066 18.3794 45.0891 18.3794 45.0723 18.3756C45.0555 18.3718 45.0398 18.3643 45.0263 18.3538C45.0128 18.3432 45.0019 18.3298 44.9944 18.3145C44.9869 18.2992 44.983 18.2825 44.983 18.2655C44.983 18.2485 44.9869 18.2318 44.9944 18.2165C45.0019 18.2012 45.0128 18.1878 45.0263 18.1772C45.0398 18.1666 45.0555 18.1592 45.0723 18.1554C45.0891 18.1516 45.1066 18.1516 45.1234 18.1554V18.0538C45.093 18.0515 45.0624 18.0552 45.0334 18.0646C45.0044 18.0741 44.9776 18.0892 44.9546 18.1089C44.9316 18.1287 44.9129 18.1528 44.8994 18.1798C44.886 18.2067 44.8782 18.2361 44.8765 18.2661Z" fill="white"/>
<path d="M45.7898 18.6861C45.7477 18.6889 45.7054 18.6829 45.6658 18.6685C45.6262 18.6541 45.5902 18.6316 45.5601 18.6025L45.6359 18.528C45.6767 18.5563 45.7234 18.5756 45.7726 18.5844C45.8151 18.5844 45.8874 18.5664 45.8874 18.502C45.8874 18.4704 45.8576 18.4184 45.7358 18.4343V18.336C45.8633 18.3462 45.8943 18.301 45.8943 18.2592C45.8943 18.2174 45.8472 18.1836 45.7898 18.1836C45.7651 18.1852 45.7411 18.192 45.7193 18.2034C45.6975 18.2149 45.6785 18.2309 45.6634 18.2502L45.5773 18.1666C45.6013 18.1354 45.6327 18.1104 45.6687 18.0937C45.7047 18.077 45.7443 18.0691 45.7841 18.0706C45.8103 18.0677 45.8369 18.0698 45.8623 18.0769C45.8877 18.084 45.9115 18.096 45.9322 18.1122C45.9529 18.1283 45.9701 18.1483 45.983 18.171C45.9958 18.1938 46.0039 18.2187 46.0069 18.2445C46.0076 18.2696 46.0019 18.2944 45.9902 18.3167C45.9786 18.339 45.9614 18.3581 45.9403 18.3721C45.9618 18.3866 45.9794 18.406 45.9916 18.4286C46.0038 18.4512 46.0103 18.4764 46.0104 18.502C46.0082 18.5283 46.0008 18.554 45.9885 18.5775C45.9762 18.601 45.9594 18.6219 45.9389 18.639C45.9184 18.6561 45.8947 18.669 45.8691 18.6771C45.8435 18.6852 45.8166 18.6882 45.7898 18.6861Z" fill="white"/>
<path d="M46.4172 18.6861C46.3751 18.6889 46.3328 18.6829 46.2932 18.6685C46.2536 18.6541 46.2176 18.6316 46.1875 18.6025L46.2633 18.528C46.3042 18.5563 46.3508 18.5756 46.4 18.5844C46.4425 18.5844 46.5149 18.5664 46.5149 18.502C46.5149 18.4704 46.4862 18.4184 46.3632 18.4343V18.336C46.4908 18.3462 46.5229 18.301 46.5229 18.2592C46.5229 18.2174 46.4758 18.1836 46.4172 18.1836C46.3926 18.1852 46.3685 18.192 46.3467 18.2034C46.3249 18.2149 46.3059 18.2309 46.2909 18.2502L46.2047 18.1666C46.2288 18.1355 46.2602 18.1105 46.2962 18.0938C46.3322 18.0771 46.3717 18.0692 46.4115 18.0706C46.4378 18.0677 46.4643 18.0698 46.4898 18.0769C46.5152 18.084 46.5389 18.096 46.5596 18.1122C46.5803 18.1283 46.5976 18.1483 46.6104 18.171C46.6232 18.1938 46.6314 18.2187 46.6343 18.2445C46.6351 18.2696 46.6293 18.2944 46.6177 18.3167C46.606 18.339 46.5889 18.3581 46.5677 18.3721C46.5894 18.3865 46.6072 18.4059 46.6196 18.4285C46.632 18.4511 46.6386 18.4763 46.6389 18.502C46.6343 18.5553 46.6083 18.6046 46.5668 18.639C46.5252 18.6735 46.4715 18.6905 46.4172 18.6861Z" fill="white"/>
<path d="M44.5388 22.425V22.0975H44.4733V22.4882H44.6893V22.3347H44.7973V22.4849H45.0121V22.0941H45.1109C45.2257 22.0941 45.2258 22.154 45.3073 22.154C45.3671 22.154 45.3866 22.0941 45.4291 22.0941C45.4716 22.0941 45.4854 22.1687 45.544 22.1687C45.6025 22.1687 45.6129 22.0941 45.6588 22.0941C45.7048 22.0941 45.7209 22.154 45.7806 22.154C45.8587 22.154 45.8817 22.0941 46 22.0941C46.0144 22.0921 46.029 22.0933 46.0428 22.0978C46.0566 22.1023 46.0692 22.1098 46.0794 22.1199C46.0897 22.13 46.0974 22.1424 46.102 22.1559C46.1066 22.1695 46.1078 22.1839 46.1057 22.198C46.1057 22.2594 46.1305 22.3183 46.1747 22.3617C46.2188 22.4051 46.2787 22.4295 46.3412 22.4295C46.4036 22.4295 46.4635 22.4051 46.5077 22.3617C46.5519 22.3183 46.5767 22.2594 46.5767 22.198V21.8593C46.5752 21.7989 46.5497 21.7414 46.5057 21.6992C46.4617 21.657 46.4027 21.6334 46.3412 21.6334V21.7136C46.3787 21.7136 46.4146 21.7282 46.4411 21.7543C46.4676 21.7803 46.4825 21.8157 46.4825 21.8525C46.487 21.9161 46.4687 21.9792 46.4308 22.0309C46.4686 22.0831 46.4868 22.1465 46.4825 22.2105C46.4825 22.2473 46.4676 22.2826 46.4411 22.3087C46.4146 22.3347 46.3787 22.3494 46.3412 22.3494C46.3037 22.3494 46.2678 22.3347 46.2413 22.3087C46.2148 22.2826 46.1999 22.2473 46.1999 22.2105C46.1955 22.1464 46.2142 22.0828 46.2527 22.0309C46.2141 21.9795 46.1954 21.9162 46.1999 21.8525C46.1999 21.8157 46.2148 21.7803 46.2413 21.7543C46.2678 21.7282 46.3037 21.7136 46.3412 21.7136V21.6346C46.2807 21.636 46.2231 21.6602 46.1803 21.7023C46.1376 21.7443 46.1129 21.801 46.1114 21.8604C46.1135 21.8746 46.1122 21.889 46.1077 21.9026C46.1031 21.9162 46.0954 21.9286 46.0852 21.9388C46.0749 21.9489 46.0624 21.9566 46.0486 21.9613C46.0349 21.9659 46.0202 21.9673 46.0057 21.9654C45.8909 21.9654 45.8644 21.9044 45.7863 21.9044C45.7266 21.9044 45.7071 21.9609 45.6646 21.9609C45.6221 21.9609 45.6094 21.8898 45.5497 21.8898C45.49 21.8898 45.4808 21.9609 45.4348 21.9609C45.3889 21.9609 45.3728 21.9044 45.3131 21.9044C45.2349 21.9044 45.2349 21.9654 45.1166 21.9654H44.3711V22.0896H44.9455V22.425H44.8593V22.2748H44.6227V22.425H44.5388Z" fill="white"/>
<path d="M45.5863 17.6281C44.9956 17.6281 44.4182 17.8002 43.927 18.1229C43.4358 18.4455 43.053 18.904 42.827 19.4405C42.6009 19.977 42.5418 20.5673 42.657 21.1368C42.7722 21.7063 43.0567 22.2295 43.4744 22.6401C43.8921 23.0507 44.4243 23.3303 45.0037 23.4436C45.583 23.5569 46.1836 23.4987 46.7293 23.2765C47.2751 23.0543 47.7415 22.678 48.0697 22.1952C48.3979 21.7123 48.573 21.1447 48.573 20.564C48.573 19.7854 48.2584 19.0386 47.6983 18.488C47.1381 17.9374 46.3785 17.6281 45.5863 17.6281ZM45.5863 23.3475C45.0256 23.3475 44.4775 23.1841 44.0112 22.8779C43.545 22.5716 43.1816 22.1364 42.9671 21.6271C42.7525 21.1179 42.6963 20.5575 42.8057 20.0169C42.9151 19.4763 43.1851 18.9797 43.5816 18.59C43.9781 18.2002 44.4833 17.9348 45.0332 17.8273C45.5832 17.7197 46.1532 17.7749 46.6713 17.9859C47.1893 18.1968 47.6321 18.554 47.9436 19.0123C48.2551 19.4706 48.4214 20.0094 48.4214 20.5606C48.4214 21.2998 48.1227 22.0086 47.591 22.5313C47.0594 23.0539 46.3382 23.3475 45.5863 23.3475Z" fill="white"/>
<path d="M45.5863 17.4756C44.9653 17.4756 44.3583 17.6566 43.842 17.9958C43.3256 18.3349 42.9232 18.817 42.6857 19.381C42.4481 19.945 42.386 20.5656 42.5072 21.1642C42.6284 21.7629 42.9275 22.3128 43.3667 22.7444C43.8059 23.1759 44.3654 23.4698 44.9745 23.5887C45.5836 23.7077 46.2149 23.6464 46.7885 23.4127C47.3622 23.1789 47.8524 22.7832 48.1972 22.2755C48.5421 21.7678 48.726 21.171 48.7258 20.5606C48.7255 19.7423 48.3946 18.9576 47.8058 18.3791C47.2171 17.8006 46.4187 17.4756 45.5863 17.4756ZM45.5863 23.5734C44.9797 23.5734 44.3867 23.3965 43.8823 23.0653C43.3779 22.734 42.9848 22.2631 42.7526 21.7122C42.5205 21.1612 42.4597 20.555 42.5781 19.9702C42.6964 19.3853 42.9885 18.8481 43.4175 18.4264C43.8464 18.0048 44.3929 17.7176 44.9879 17.6013C45.5829 17.4849 46.1996 17.5446 46.76 17.7728C47.3205 18.001 47.7995 18.3875 48.1365 18.8833C48.4735 19.3791 48.6534 19.962 48.6534 20.5584C48.6537 20.9545 48.5746 21.3468 48.4206 21.7129C48.2666 22.0789 48.0407 22.4115 47.7559 22.6918C47.471 22.972 47.1328 23.1943 46.7605 23.3459C46.3883 23.4976 45.9893 23.5756 45.5863 23.5756V23.5734Z" fill="white"/>
<path d="M45.5868 16.2222C44.7139 16.2222 43.8606 16.4766 43.1348 16.9533C42.409 17.43 41.8433 18.1076 41.5093 18.9004C41.1753 19.6931 41.0878 20.5654 41.2581 21.407C41.4284 22.2486 41.8488 23.0216 42.466 23.6284C43.0832 24.2351 43.8696 24.6483 44.7258 24.8157C45.5819 24.9831 46.4693 24.8972 47.2758 24.5689C48.0822 24.2405 48.7715 23.6844 49.2564 22.971C49.7414 22.2575 50.0003 21.4187 50.0003 20.5606C50.0003 19.41 49.5353 18.3065 48.7076 17.4929C47.8799 16.6793 46.7573 16.2222 45.5868 16.2222ZM45.5868 24.7568C44.7425 24.757 43.917 24.5111 43.2149 24.0502C42.5128 23.5892 41.9655 22.934 41.6422 22.1672C41.3189 21.4005 41.2342 20.5567 41.3988 19.7427C41.5634 18.9286 41.9699 18.1808 42.5668 17.5939C43.1638 17.0069 43.9244 16.6072 44.7524 16.4452C45.5805 16.2832 46.4389 16.3662 47.219 16.6838C47.999 17.0013 48.6658 17.5392 49.1349 18.2292C49.604 18.9193 49.8544 19.7307 49.8544 20.5606C49.8544 21.6733 49.4048 22.7405 48.6045 23.5274C47.8042 24.3143 46.7187 24.7565 45.5868 24.7568Z" fill="white"/>
<path d="M45.5863 16.4559C44.7604 16.4559 43.9531 16.6967 43.2664 17.1477C42.5798 17.5987 42.0445 18.2398 41.7285 18.9898C41.4125 19.7399 41.3298 20.5652 41.4909 21.3614C41.652 22.1577 42.0497 22.8891 42.6337 23.4631C43.2177 24.0372 43.9617 24.4281 44.7717 24.5865C45.5817 24.7449 46.4213 24.6636 47.1843 24.3529C47.9473 24.0422 48.5994 23.5161 49.0583 22.8411C49.5171 22.1661 49.762 21.3725 49.762 20.5606C49.7617 19.4721 49.3216 18.4282 48.5386 17.6585C47.7556 16.8888 46.6937 16.4562 45.5863 16.4559ZM45.5863 24.5863C44.7754 24.5863 43.9828 24.3499 43.3086 23.9071C42.6343 23.4643 42.1088 22.8348 41.7985 22.0984C41.4882 21.362 41.4071 20.5517 41.5652 19.7699C41.7234 18.9881 42.1139 18.27 42.6873 17.7064C43.2607 17.1427 43.9912 16.7589 44.7865 16.6034C45.5818 16.4479 46.4061 16.5277 47.1552 16.8327C47.9044 17.1378 48.5447 17.6543 48.9952 18.3171C49.4457 18.9798 49.6862 19.759 49.6862 20.5561C49.6868 21.0858 49.5812 21.6103 49.3754 22.0998C49.1696 22.5893 48.8677 23.0341 48.487 23.4088C48.1062 23.7835 47.654 24.0808 47.1563 24.2836C46.6586 24.4864 46.1251 24.5908 45.5863 24.5908V24.5863Z" fill="white"/>
<path d="M44.8034 16.7788L44.6425 16.8149L44.5874 17.4755C44.636 17.4591 44.6855 17.4451 44.7356 17.4338L44.7448 17.3208L44.9309 17.2791L44.9918 17.3818C45.0414 17.3705 45.0916 17.3618 45.1422 17.3558L44.8034 16.7788ZM44.7563 17.1729L44.77 17.0035L44.8574 17.1503L44.7563 17.1729Z" fill="white"/>
<path d="M48.3354 17.8956L48.1447 18.0616C48.1341 18.0723 48.1282 18.0867 48.1282 18.1017C48.1282 18.1166 48.1341 18.131 48.1447 18.1417L48.286 18.2998L48.2022 18.371L48.023 18.1711L47.9219 18.2592L48.1413 18.5031C48.1477 18.5103 48.1556 18.5161 48.1643 18.5203C48.1731 18.5245 48.1826 18.5269 48.1923 18.5274C48.2021 18.5279 48.2118 18.5266 48.221 18.5234C48.2302 18.5201 48.2386 18.5152 48.2458 18.5087L48.4365 18.3495C48.4479 18.3395 48.4549 18.3256 48.456 18.3106C48.457 18.2956 48.4521 18.2808 48.4422 18.2693L48.2998 18.1101L48.3825 18.0401L48.5652 18.2422L48.6709 18.1542L48.4411 17.9035C48.4347 17.8961 48.4269 17.89 48.4181 17.8857C48.4093 17.8813 48.3998 17.8786 48.3899 17.8779C48.3801 17.8772 48.3702 17.8783 48.3609 17.8814C48.3515 17.8844 48.3429 17.8892 48.3354 17.8956Z" fill="white"/>
<path d="M42.6251 19.1377L42.5688 19.2563L42.0024 18.9796L42.1794 18.6284L42.3023 18.6905L42.1874 18.9164L42.285 18.9638L42.385 18.7662L42.5079 18.8294L42.4091 19.0259L42.6251 19.1377Z" fill="white"/>
<path d="M48.162 17.6426L47.9322 17.4574C47.9145 17.4433 47.8918 17.4365 47.869 17.4386C47.8462 17.4407 47.8252 17.4515 47.8105 17.4687L47.5176 17.8222C47.5101 17.8307 47.5045 17.8406 47.5011 17.8513C47.4976 17.862 47.4964 17.8732 47.4974 17.8844C47.4985 17.8956 47.5019 17.9064 47.5073 17.9163C47.5127 17.9262 47.5201 17.9349 47.529 17.9419C47.5807 17.9791 47.6301 18.0164 47.6439 18.0266C47.6577 18.0367 47.7071 18.0841 47.7588 18.1259C47.7675 18.1331 47.7776 18.1385 47.7885 18.1418C47.7993 18.1451 47.8107 18.1463 47.8221 18.1452C47.8334 18.1442 47.8444 18.1409 47.8544 18.1357C47.8645 18.1304 47.8733 18.1233 47.8806 18.1146L48.1758 17.7612C48.1899 17.7436 48.1963 17.7213 48.1937 17.6991C48.1912 17.6769 48.1797 17.6566 48.162 17.6426ZM47.8093 17.9893L47.6554 17.8662L47.8851 17.5918L48.0379 17.7149L47.8093 17.9893Z" fill="white"/>
<path d="M45.6609 17.3231V17.1876L45.4047 17.1966L45.3863 16.7076H45.252L45.2761 17.3287C45.4128 17.3185 45.538 17.3152 45.6643 17.3174" fill="white"/>
<path d="M42.9192 18.4366L43.0341 18.5168C42.956 18.6139 42.8813 18.7144 42.8044 18.8262L42.2886 18.466L42.5183 18.1453L42.6332 18.2266L42.4816 18.4355L42.57 18.4987L42.6998 18.318L42.8147 18.3993L42.686 18.5778L42.7768 18.6421L42.9192 18.4366Z" fill="white"/>
<path d="M43.3843 18.0312L43.0569 17.7048C43.0408 17.689 43.0189 17.6801 42.9961 17.6801C42.9732 17.6801 42.9513 17.689 42.9352 17.7048L42.7238 17.9115L42.6641 17.9702L43.1155 18.4219L43.2706 18.2593C43.2821 18.2468 43.3349 18.2039 43.3855 18.1565C43.3943 18.1485 43.4013 18.1388 43.406 18.1279C43.4108 18.1171 43.4132 18.1054 43.4131 18.0936C43.413 18.0818 43.4104 18.0701 43.4054 18.0594C43.4005 18.0486 43.3933 18.039 43.3843 18.0312ZM43.1098 18.2231L42.8559 17.9702L42.9961 17.8336L43.2511 18.0854L43.1098 18.2231Z" fill="white"/>
<path d="M43.8103 17.6732L43.8873 17.7861C43.7793 17.8516 43.6759 17.9205 43.5656 18.0007L43.2061 17.4891L43.5346 17.2633L43.6116 17.3762L43.3967 17.5219L43.4576 17.61L43.6426 17.4846L43.7195 17.5976L43.5357 17.7218L43.5989 17.8121L43.8103 17.6732Z" fill="white"/>
<path d="M46.4274 16.7789L46.1333 16.7281L46.0494 16.7134L45.9346 17.3333L46.1643 17.3638C46.1804 17.3638 46.247 17.3841 46.3137 17.3966C46.3363 17.4002 46.3595 17.3951 46.3784 17.3822C46.3972 17.3694 46.4103 17.3498 46.4148 17.3277L46.4963 16.876C46.4983 16.8652 46.4981 16.8541 46.4957 16.8433C46.4933 16.8326 46.4888 16.8224 46.4824 16.8134C46.476 16.8043 46.4678 16.7966 46.4584 16.7907C46.4489 16.7848 46.4384 16.7808 46.4274 16.7789ZM46.2918 17.2509L46.0965 17.217L46.1597 16.8681L46.355 16.902L46.2918 17.2509Z" fill="white"/>
<path d="M46.9661 17.4699L46.9167 17.5964C46.8018 17.5467 46.687 17.5027 46.5537 17.4609L46.7743 16.8771L47.1488 17.0137L47.0982 17.1413L46.8535 17.0521L46.8145 17.1515L47.0247 17.2283L46.9742 17.3559L46.7662 17.2791L46.726 17.3818L46.9661 17.4699Z" fill="white"/>
<path d="M47.6876 17.2835L47.3223 17.0825L47.0063 17.6347L47.1362 17.7013L47.251 17.4902L47.4911 17.6234C47.4975 17.6271 47.5046 17.6294 47.512 17.6304C47.5193 17.6313 47.5267 17.6308 47.5339 17.6289C47.541 17.6271 47.5477 17.6238 47.5536 17.6194C47.5595 17.6149 47.5644 17.6094 47.5681 17.6031L47.7036 17.3671C47.7123 17.3538 47.7154 17.3377 47.7124 17.3222C47.7094 17.3066 47.7005 17.2928 47.6876 17.2835ZM47.5267 17.3964L47.5061 17.4326C47.5039 17.4365 47.501 17.44 47.4974 17.4428C47.4939 17.4457 47.4898 17.4478 47.4854 17.449C47.481 17.4503 47.4764 17.4507 47.4719 17.4502C47.4673 17.4497 47.4629 17.4483 47.459 17.4461L47.3269 17.3716L47.382 17.2767L47.5141 17.3501C47.5211 17.3546 47.5263 17.3614 47.5286 17.3693C47.5309 17.3772 47.5303 17.3856 47.5267 17.3931V17.3964Z" fill="white"/>
<path d="M48.2827 18.6985L48.8065 18.3518L48.8812 18.4647L48.3574 18.8114L48.3195 18.7561C48.308 18.729 48.2954 18.712 48.2827 18.6985Z" fill="white"/>
<path d="M48.9893 18.9176L48.5482 19.1434C48.539 19.1242 48.5287 19.1039 48.5183 19.0847L48.4873 19.026L48.9273 18.8001L48.8652 18.6793L48.987 18.6172L49.1743 18.9763L49.0513 19.0373L48.9893 18.9176Z" fill="white"/>
<path d="M42.0542 19.4608L42.0485 19.6279L42.2059 19.6901L42.0428 19.7375L42.0301 19.9035L41.9359 19.7657L41.7705 19.8052L41.8739 19.6731L41.7843 19.532L41.9451 19.5884L42.0542 19.4608Z" fill="white"/>
<path d="M49.1204 19.4608L49.1261 19.6279L48.9688 19.6901L49.1319 19.7375L49.1445 19.9035L49.2399 19.7657L49.4041 19.8052L49.3007 19.6731L49.3903 19.532L49.2307 19.5884L49.1204 19.4608Z" fill="white"/>
<path d="M44.1288 23.9663L44.1127 24.0013L43.9335 23.92L44.0817 23.5971L44.2632 23.6784L44.246 23.7134L44.3678 23.7676L44.4068 23.684C44.4116 23.6739 44.4144 23.6629 44.4148 23.6517C44.4153 23.6405 44.4135 23.6294 44.4095 23.6189C44.4056 23.6084 44.3996 23.5987 44.3918 23.5905C44.384 23.5823 44.3747 23.5757 44.3643 23.5711C44.3023 23.5429 44.2391 23.518 44.223 23.5113C44.2069 23.5045 44.1518 23.4808 44.0955 23.4514C44.0852 23.4467 44.074 23.444 44.0626 23.4436C44.0512 23.4431 44.0399 23.4449 44.0292 23.4487C44.0185 23.4526 44.0087 23.4586 44.0004 23.4662C43.9921 23.4738 43.9853 23.483 43.9806 23.4932L43.7877 23.9087C43.7829 23.919 43.7802 23.93 43.7798 23.9413C43.7794 23.9525 43.7813 23.9637 43.7854 23.9742C43.7895 23.9847 43.7956 23.9943 43.8035 24.0025C43.8114 24.0106 43.8208 24.0172 43.8313 24.0217L44.1013 24.1436C44.1116 24.1485 44.1228 24.1513 44.1342 24.1519C44.1456 24.1524 44.157 24.1507 44.1677 24.1468C44.1785 24.1429 44.1883 24.1369 44.1966 24.1291C44.2049 24.1214 44.2116 24.1121 44.2161 24.1018L44.2529 24.0217L44.1288 23.9663Z" fill="white"/>
<path d="M42.3035 20.425L41.6729 20.3866L41.682 20.2545L42.3115 20.294C42.3115 20.3155 42.3115 20.3381 42.3115 20.3607L42.3035 20.425Z" fill="white"/>
<path d="M42.2784 21.1986L42.0314 21.2618C42.0165 21.2658 42.0038 21.2754 41.9961 21.2885C41.9883 21.3016 41.9862 21.3171 41.99 21.3318L42.044 21.5351L41.936 21.5622L41.8671 21.3047L41.7373 21.3386L41.8212 21.6536C41.8265 21.6721 41.839 21.6877 41.856 21.6972C41.873 21.7067 41.893 21.7093 41.9119 21.7045L42.1554 21.6457C42.1629 21.644 42.1699 21.6409 42.1761 21.6365C42.1822 21.632 42.1874 21.6265 42.1914 21.6201C42.1954 21.6136 42.198 21.6065 42.1991 21.5991C42.2002 21.5917 42.1998 21.5841 42.198 21.5769L42.1428 21.3725L42.2497 21.3454L42.3197 21.6062L42.4541 21.5735L42.3668 21.2505C42.3645 21.2414 42.3604 21.2327 42.3547 21.2252C42.349 21.2176 42.3419 21.2112 42.3336 21.2064C42.3254 21.2015 42.3163 21.1983 42.3068 21.197C42.2973 21.1957 42.2877 21.1962 42.2784 21.1986Z" fill="white"/>
<path d="M41.9586 20.9841L42.3239 20.9491C42.3239 20.9706 42.3239 20.9932 42.3239 21.0157C42.3251 21.0373 42.3274 21.0588 42.3308 21.0801L41.7025 21.1388L41.6898 21.0078L42.0597 20.73L41.6646 20.7413V20.6103L42.2952 20.5923C42.2952 20.6149 42.2952 20.6363 42.2952 20.6589C42.2952 20.6815 42.2952 20.7018 42.2952 20.7244L41.9586 20.9841Z" fill="white"/>
<path d="M42.0739 22.2557C42.0783 22.2661 42.0848 22.2757 42.093 22.2837C42.1012 22.2916 42.1109 22.2979 42.1216 22.3021C42.1323 22.3064 42.1438 22.3084 42.1553 22.3082C42.1669 22.3079 42.1782 22.3055 42.1888 22.3008L42.6919 22.0863L42.6379 21.9643L42.1853 22.1585L42.1061 21.979L42.5587 21.787L42.5035 21.6639L42.0027 21.8774C41.9921 21.8818 41.9825 21.8882 41.9745 21.8963C41.9665 21.9044 41.9603 21.914 41.9561 21.9245C41.9519 21.9351 41.9499 21.9463 41.9502 21.9576C41.9505 21.9689 41.9531 21.98 41.9579 21.9903L42.0739 22.2557Z" fill="white"/>
<path d="M42.7297 23.2266L42.8389 23.1679L42.9687 23.1013L43.1203 23.0211L43.0422 23.1724L42.9687 23.1013L42.8389 23.1679L42.9756 23.3L42.917 23.4084L43.0261 23.5135L43.3305 22.9274L43.2134 22.8134L42.6206 23.1216L42.7297 23.2266Z" fill="white"/>
<path d="M42.9926 22.5571C42.91 22.4506 42.8333 22.3398 42.7629 22.2251L42.2437 22.5774L42.3252 22.6903L42.5274 22.5537L42.6044 22.6666C42.6116 22.6773 42.6143 22.6904 42.6119 22.703C42.6096 22.7156 42.6023 22.7269 42.5917 22.7344C42.5642 22.7536 42.4918 22.7954 42.4769 22.8078C42.4593 22.8189 42.4469 22.8363 42.4424 22.8563L42.5331 22.9896C42.5297 22.978 42.5307 22.9656 42.536 22.9548C42.5413 22.9439 42.5505 22.9354 42.5619 22.9309L42.71 22.8304C42.7162 22.8265 42.7216 22.8214 42.7257 22.8155C42.7298 22.8095 42.7327 22.8028 42.7341 22.7957C42.7355 22.7886 42.7354 22.7813 42.7338 22.7743C42.7323 22.7672 42.7293 22.7606 42.725 22.7547C42.725 22.7547 42.725 22.7547 42.725 22.7491C42.725 22.7434 42.725 22.7491 42.725 22.7491C42.729 22.755 42.7342 22.7601 42.7403 22.7641C42.7464 22.7681 42.7532 22.7708 42.7603 22.7722C42.7675 22.7736 42.7749 22.7735 42.782 22.7721C42.7891 22.7706 42.7959 22.7678 42.8019 22.7637L42.9742 22.6508C42.9829 22.6469 42.9904 22.641 42.9963 22.6337C43.0021 22.6264 43.0061 22.6178 43.0079 22.6086C43.0097 22.5994 43.0093 22.59 43.0066 22.581C43.004 22.5721 42.9992 22.5639 42.9926 22.5571ZM42.8042 22.5853L42.7698 22.609C42.7624 22.614 42.7534 22.6159 42.7446 22.6144C42.7358 22.6129 42.728 22.6082 42.7227 22.6011L42.6377 22.4792L42.7284 22.4182L42.8134 22.5402C42.8185 22.5471 42.8206 22.5557 42.8193 22.5641C42.818 22.5725 42.8134 22.5802 42.8065 22.5853H42.8042Z" fill="white"/>
<path d="M44.8423 23.8624L44.8779 23.7314C44.755 23.7032 44.6344 23.6704 44.5045 23.6287L44.3276 24.226L44.7113 24.3389L44.7481 24.2068L44.4976 24.1357L44.5275 24.0329L44.7423 24.0939L44.7791 23.9629L44.5654 23.9019L44.5953 23.7958L44.8423 23.8624Z" fill="white"/>
<path d="M43.6213 23.597L43.8246 23.2978L43.8798 23.3351L43.9361 23.3712L43.5846 23.8861L43.4697 23.8127L43.4858 23.361L43.2445 23.6693L43.1377 23.588L43.5237 23.0968L43.5765 23.1386L43.6294 23.1781L43.6213 23.597Z" fill="white"/>
<path d="M46.2495 23.8297C46.2481 23.8186 46.2444 23.8078 46.2387 23.798C46.233 23.7883 46.2254 23.7797 46.2163 23.7729C46.2072 23.7661 46.1968 23.7611 46.1858 23.7582C46.1747 23.7554 46.1632 23.7548 46.1518 23.7563C46.0898 23.7688 46.0289 23.7789 46.0128 23.7812C45.9967 23.7834 45.9267 23.7812 45.86 23.7959C45.8372 23.799 45.8166 23.8108 45.8026 23.8287C45.7886 23.8467 45.7824 23.8694 45.7854 23.8918L45.8486 24.3435C45.8501 24.3545 45.8538 24.365 45.8595 24.3744C45.8652 24.3839 45.8728 24.3922 45.8817 24.3988C45.8907 24.4055 45.9009 24.4103 45.9118 24.413C45.9226 24.4157 45.934 24.4163 45.945 24.4147L46.2403 24.374C46.2515 24.3726 46.2623 24.3691 46.2721 24.3635C46.2819 24.358 46.2904 24.3506 46.2973 24.3418C46.3041 24.3329 46.3091 24.3228 46.3119 24.3121C46.3148 24.3014 46.3154 24.2902 46.3138 24.2792L46.2495 23.8297ZM45.9761 24.2814L45.9255 23.9302L46.1231 23.9031L46.1714 24.2555L45.9761 24.2814Z" fill="white"/>
<path d="M47.5359 23.5869L47.4061 23.3475C47.3983 23.3336 47.3853 23.3232 47.3698 23.3186C47.3544 23.3139 47.3377 23.3154 47.3233 23.3227C47.2222 23.3848 47.0396 23.4774 46.9546 23.5169L47.2579 24.0747C47.2958 24.051 47.3383 24.0329 47.3865 24.0058L47.2716 23.7902L47.5152 23.6614C47.5216 23.6579 47.5272 23.6532 47.5317 23.6475C47.5362 23.6418 47.5395 23.6354 47.5414 23.6284C47.5433 23.6215 47.5438 23.6142 47.5429 23.6071C47.5419 23.6 47.5395 23.5931 47.5359 23.5869ZM47.3371 23.5971L47.2027 23.6671L47.151 23.5711L47.2843 23.5C47.2924 23.4958 47.3018 23.495 47.3106 23.4975C47.3193 23.5 47.3268 23.5057 47.3314 23.5135L47.3509 23.5508C47.3531 23.5547 47.3545 23.559 47.355 23.5635C47.3555 23.5679 47.3551 23.5724 47.3539 23.5767C47.3526 23.5811 47.3504 23.5851 47.3476 23.5886C47.3447 23.592 47.3411 23.5949 47.3371 23.5971Z" fill="white"/>
<path d="M49.1674 22.1551L48.7079 21.9621L48.6527 22.0874L48.5264 22.0332C48.589 21.9138 48.6435 21.7904 48.6895 21.6639L48.8147 21.717L48.7607 21.8412L49.2202 22.0343L49.1674 22.1551Z" fill="white"/>
<path d="M45.552 24.2577V24.2961L45.3544 24.2893L45.3682 23.9348L45.5669 23.9415V23.9811H45.7013V23.8885C45.7019 23.8659 45.6935 23.844 45.6778 23.8275C45.6621 23.811 45.6404 23.8013 45.6175 23.8004C45.5497 23.8004 45.4819 23.8004 45.4647 23.8004C45.4475 23.8004 45.3866 23.8004 45.3222 23.7925C45.3109 23.7919 45.2995 23.7935 45.2888 23.7973C45.2781 23.8011 45.2683 23.8069 45.26 23.8145C45.2516 23.8221 45.2449 23.8313 45.2402 23.8414C45.2355 23.8516 45.2329 23.8626 45.2326 23.8738L45.2154 24.3255C45.2149 24.3366 45.2167 24.3477 45.2206 24.3582C45.2245 24.3686 45.2305 24.3782 45.2382 24.3864C45.2459 24.3946 45.2551 24.4012 45.2654 24.4058C45.2757 24.4105 45.2868 24.4131 45.2981 24.4136L45.5956 24.4249C45.6069 24.4253 45.6181 24.4236 45.6287 24.4197C45.6393 24.4158 45.6489 24.41 45.6572 24.4024C45.6654 24.3948 45.672 24.3857 45.6766 24.3756C45.6813 24.3655 45.6838 24.3546 45.6841 24.3435V24.2566L45.552 24.2577Z" fill="white"/>
<path d="M47.0315 24.155C47.0193 24.1548 47.0075 24.1502 46.9984 24.1421C46.9893 24.134 46.9835 24.1229 46.9821 24.1109L46.9293 23.9415C46.9272 23.9347 46.9237 23.9284 46.9191 23.9228C46.9145 23.9173 46.9089 23.9128 46.9025 23.9094C46.8961 23.9061 46.889 23.904 46.8818 23.9033C46.8746 23.9026 46.8673 23.9033 46.8604 23.9054H46.8546C46.8684 23.901 46.8799 23.8914 46.8866 23.8787C46.8933 23.866 46.8946 23.8513 46.8902 23.8377L46.8294 23.6412C46.8244 23.6263 46.8136 23.6139 46.7994 23.6067C46.7853 23.5996 46.7688 23.5981 46.7535 23.6028C46.6254 23.6501 46.4946 23.6901 46.3618 23.7225L46.5491 24.3153L46.6869 24.2735L46.6134 24.0477L46.7432 24.0082C46.7558 24.0042 46.7696 24.0053 46.7814 24.0113C46.7932 24.0172 46.8022 24.0274 46.8064 24.0398C46.8156 24.0703 46.8351 24.1527 46.842 24.1719C46.8445 24.1819 46.849 24.1912 46.8553 24.1994C46.8617 24.2075 46.8696 24.2143 46.8787 24.2193L47.0304 24.173L47.0315 24.155ZM46.7191 23.8625L46.5766 23.9065L46.5433 23.8026L46.6869 23.7597C46.6954 23.7572 46.7046 23.758 46.7126 23.762C46.7205 23.766 46.7265 23.7729 46.7294 23.7812L46.7409 23.8207C46.7435 23.8291 46.7426 23.8381 46.7385 23.8459C46.7345 23.8537 46.7275 23.8597 46.7191 23.8625Z" fill="white"/>
<path d="M48.1678 23.3779L47.8749 23.0234C47.8678 23.0146 47.8589 23.0073 47.8489 23.002C47.8389 22.9967 47.8278 22.9934 47.8165 22.9923C47.8051 22.9913 47.7936 22.9925 47.7828 22.9959C47.7719 22.9993 47.7618 23.0048 47.7531 23.0121L47.6463 23.1035C47.6325 23.1137 47.5762 23.1521 47.5234 23.1939C47.5057 23.2082 47.4945 23.2288 47.4922 23.2512C47.4898 23.2736 47.4965 23.296 47.5108 23.3136L47.8037 23.6693C47.8179 23.685 47.8375 23.6949 47.8587 23.6972C47.8799 23.6995 47.9013 23.694 47.9186 23.6817L48.1483 23.4965C48.1575 23.49 48.1654 23.4818 48.1714 23.4723C48.1773 23.4628 48.1813 23.4522 48.1832 23.4412C48.185 23.4302 48.1846 23.4189 48.1819 23.4081C48.1793 23.3972 48.1745 23.387 48.1678 23.3779ZM47.8772 23.5473L47.6475 23.2729L47.8025 23.1487L48.0323 23.4254L47.8772 23.5473Z" fill="white"/>
<path d="M48.4367 22.2148L48.3506 22.3515L48.7871 22.8517L48.8675 22.7241L48.7848 22.6327L48.8859 22.4734L49.0008 22.5051L49.0812 22.3775L48.4367 22.2148ZM48.5769 22.3955L48.7446 22.4373L48.6895 22.5231L48.5769 22.3955Z" fill="white"/>
<path d="M48.7695 21.4347L49.3738 21.6131L49.3347 21.7396L48.7305 21.5612C48.7374 21.5397 48.7443 21.5183 48.75 21.4968C48.7557 21.4753 48.7626 21.455 48.7695 21.4347Z" fill="white"/>
<path d="M49.2512 20.3641L48.8848 20.3777C48.8848 20.3551 48.8848 20.3325 48.8848 20.311V20.2455L49.5154 20.2252V20.3562L49.1283 20.6114L49.5235 20.6238V20.7548L48.8917 20.7345V20.669C48.8917 20.6464 48.8917 20.625 48.8917 20.6035L49.2512 20.3641Z" fill="white"/>
<path d="M49.4258 20.94L48.9663 20.8723C48.955 20.8705 48.9435 20.871 48.9325 20.8736C48.9214 20.8762 48.911 20.881 48.9018 20.8876C48.8926 20.8942 48.8848 20.9025 48.8789 20.9121C48.873 20.9217 48.8692 20.9323 48.8675 20.9434C48.8617 21.0055 48.8548 21.0665 48.8514 21.0823C48.8479 21.0981 48.833 21.1636 48.8227 21.2302C48.8194 21.2527 48.8253 21.2755 48.839 21.2937C48.8528 21.3119 48.8734 21.324 48.8962 21.3273L49.3557 21.3962C49.3782 21.3995 49.4011 21.3938 49.4194 21.3805C49.4377 21.3671 49.4499 21.3472 49.4533 21.3251L49.4981 21.036C49.5014 21.0139 49.4957 20.9913 49.4821 20.9733C49.4685 20.9553 49.4483 20.9434 49.4258 20.94ZM49.327 21.2573L48.9697 21.2054L48.9996 21.0123L49.3557 21.0654L49.327 21.2573Z" fill="white"/>
<path d="M44.0863 19.026C44.0983 19.026 44.1101 19.0224 44.1201 19.0159C44.1301 19.0093 44.1379 18.9999 44.1425 18.989C44.1471 18.9781 44.1483 18.966 44.146 18.9544C44.1436 18.9428 44.1378 18.9322 44.1293 18.9238C44.1208 18.9154 44.11 18.9097 44.0982 18.9074C44.0863 18.9051 44.0741 18.9063 44.063 18.9108C44.0518 18.9153 44.0423 18.923 44.0357 18.9329C44.029 18.9427 44.0254 18.9543 44.0254 18.9661C44.0254 18.982 44.0318 18.9972 44.0432 19.0084C44.0546 19.0196 44.0701 19.026 44.0863 19.026Z" fill="white"/>
<path d="M43.8748 19.2338C43.8869 19.2338 43.8987 19.2303 43.9087 19.2237C43.9187 19.2172 43.9265 19.2078 43.9311 19.1969C43.9357 19.186 43.9369 19.1739 43.9346 19.1623C43.9322 19.1507 43.9264 19.14 43.9179 19.1317C43.9094 19.1233 43.8985 19.1176 43.8867 19.1153C43.8749 19.113 43.8627 19.1142 43.8515 19.1187C43.8404 19.1232 43.8309 19.1309 43.8242 19.1407C43.8175 19.1506 43.814 19.1621 43.814 19.174C43.814 19.1899 43.8204 19.2051 43.8318 19.2163C43.8432 19.2275 43.8587 19.2338 43.8748 19.2338Z" fill="white"/>
<path d="M44.2977 19.2338C44.3097 19.2338 44.3215 19.2303 44.3315 19.2237C44.3415 19.2172 44.3493 19.2078 44.3539 19.1969C44.3586 19.186 44.3598 19.1739 44.3574 19.1623C44.3551 19.1507 44.3493 19.14 44.3408 19.1317C44.3322 19.1233 44.3214 19.1176 44.3096 19.1153C44.2978 19.113 44.2855 19.1142 44.2744 19.1187C44.2633 19.1232 44.2538 19.1309 44.2471 19.1407C44.2404 19.1506 44.2368 19.1621 44.2368 19.174C44.2368 19.1899 44.2432 19.2051 44.2547 19.2163C44.2661 19.2275 44.2816 19.2338 44.2977 19.2338Z" fill="white"/>
<path d="M44.0863 19.4416C44.0983 19.4416 44.1101 19.4381 44.1201 19.4315C44.1301 19.4249 44.1379 19.4156 44.1425 19.4046C44.1471 19.3937 44.1483 19.3817 44.146 19.3701C44.1436 19.3585 44.1378 19.3478 44.1293 19.3394C44.1208 19.3311 44.11 19.3254 44.0982 19.323C44.0863 19.3207 44.0741 19.3219 44.063 19.3265C44.0518 19.331 44.0423 19.3387 44.0357 19.3485C44.029 19.3583 44.0254 19.3699 44.0254 19.3817C44.0254 19.3976 44.0318 19.4128 44.0432 19.4241C44.0546 19.4353 44.0701 19.4416 44.0863 19.4416Z" fill="white"/>
<path d="M44.5023 19.026C44.5143 19.026 44.5261 19.0224 44.5361 19.0159C44.5461 19.0093 44.5539 18.9999 44.5585 18.989C44.5631 18.9781 44.5644 18.966 44.562 18.9544C44.5597 18.9428 44.5539 18.9322 44.5453 18.9238C44.5368 18.9154 44.526 18.9097 44.5142 18.9074C44.5024 18.9051 44.4901 18.9063 44.479 18.9108C44.4679 18.9153 44.4584 18.923 44.4517 18.9329C44.445 18.9427 44.4414 18.9543 44.4414 18.9661C44.4414 18.982 44.4478 18.9972 44.4592 19.0084C44.4707 19.0196 44.4861 19.026 44.5023 19.026Z" fill="white"/>
<path d="M46.6766 19.0259C46.6927 19.0259 46.7082 19.0196 46.7197 19.0084C46.7311 18.9972 46.7375 18.982 46.7375 18.9661C46.7375 18.9502 46.7311 18.935 46.7197 18.9238C46.7082 18.9126 46.6927 18.9062 46.6766 18.9063C46.6604 18.9062 46.645 18.9126 46.6335 18.9238C46.6221 18.935 46.6157 18.9502 46.6157 18.9661C46.6157 18.982 46.6221 18.9972 46.6335 19.0084C46.645 19.0196 46.6604 19.0259 46.6766 19.0259Z" fill="white"/>
<path d="M47.1395 19.026C47.1515 19.026 47.1633 19.0224 47.1733 19.0159C47.1833 19.0093 47.1911 18.9999 47.1957 18.989C47.2003 18.9781 47.2016 18.966 47.1992 18.9544C47.1969 18.9428 47.1911 18.9322 47.1825 18.9238C47.174 18.9154 47.1632 18.9097 47.1514 18.9074C47.1396 18.9051 47.1273 18.9063 47.1162 18.9108C47.1051 18.9153 47.0956 18.923 47.0889 18.9329C47.0822 18.9427 47.0786 18.9543 47.0786 18.9661C47.0786 18.982 47.085 18.9972 47.0964 19.0084C47.1079 19.0196 47.1234 19.026 47.1395 19.026Z" fill="white"/>
<path d="M44.5023 19.4348C44.5143 19.4348 44.5261 19.4312 44.5361 19.4247C44.5461 19.4181 44.5539 19.4088 44.5585 19.3978C44.5631 19.3869 44.5644 19.3748 44.562 19.3632C44.5597 19.3516 44.5539 19.341 44.5453 19.3326C44.5368 19.3242 44.526 19.3185 44.5142 19.3162C44.5024 19.3139 44.4901 19.3151 44.479 19.3196C44.4679 19.3242 44.4584 19.3318 44.4517 19.3417C44.445 19.3515 44.4414 19.3631 44.4414 19.3749C44.4414 19.3908 44.4478 19.406 44.4592 19.4172C44.4707 19.4285 44.4861 19.4348 44.5023 19.4348Z" fill="white"/>
<path d="M44.9457 19.8503C44.9618 19.8503 44.9773 19.844 44.9887 19.8328C45.0001 19.8215 45.0065 19.8063 45.0065 19.7904C45.0065 19.7746 45.0001 19.7593 44.9887 19.7481C44.9773 19.7369 44.9618 19.7306 44.9457 19.7306C44.9295 19.7306 44.914 19.7369 44.9026 19.7481C44.8912 19.7593 44.8848 19.7746 44.8848 19.7904C44.8848 19.8063 44.8912 19.8215 44.9026 19.8328C44.914 19.844 44.9295 19.8503 44.9457 19.8503Z" fill="white"/>
<path d="M45.1751 20.0445C45.1831 20.0445 45.1911 20.043 45.1985 20.04C45.2058 20.0369 45.2125 20.0325 45.2182 20.027C45.2239 20.0214 45.2283 20.0148 45.2314 20.0076C45.2345 20.0003 45.236 19.9925 45.236 19.9847C45.236 19.9768 45.2345 19.969 45.2314 19.9618C45.2283 19.9545 45.2239 19.9479 45.2182 19.9423C45.2125 19.9368 45.2058 19.9324 45.1985 19.9294C45.1911 19.9264 45.1831 19.9248 45.1751 19.9248C45.1672 19.9248 45.1592 19.9264 45.1518 19.9294C45.1445 19.9324 45.1377 19.9368 45.1321 19.9423C45.1264 19.9479 45.122 19.9545 45.1189 19.9618C45.1158 19.969 45.1143 19.9768 45.1143 19.9847C45.1143 19.9925 45.1158 20.0003 45.1189 20.0076C45.122 20.0148 45.1264 20.0214 45.1321 20.027C45.1377 20.0325 45.1445 20.0369 45.1518 20.04C45.1592 20.043 45.1672 20.0445 45.1751 20.0445Z" fill="white"/>
<path d="M44.2909 19.6425C44.3029 19.6425 44.3147 19.639 44.3247 19.6324C44.3347 19.6259 44.3425 19.6165 44.3471 19.6056C44.3517 19.5946 44.3529 19.5826 44.3506 19.571C44.3482 19.5594 44.3424 19.5487 44.3339 19.5404C44.3254 19.532 44.3146 19.5263 44.3027 19.524C44.2909 19.5217 44.2787 19.5229 44.2676 19.5274C44.2564 19.5319 44.2469 19.5396 44.2402 19.5494C44.2336 19.5593 44.23 19.5708 44.23 19.5827C44.23 19.5986 44.2364 19.6138 44.2478 19.625C44.2592 19.6362 44.2747 19.6425 44.2909 19.6425Z" fill="white"/>
<path d="M44.0863 19.8436C44.1199 19.8436 44.1472 19.8168 44.1472 19.7837C44.1472 19.7507 44.1199 19.7239 44.0863 19.7239C44.0526 19.7239 44.0254 19.7507 44.0254 19.7837C44.0254 19.8168 44.0526 19.8436 44.0863 19.8436Z" fill="white"/>
<path d="M44.2943 20.0535C44.3063 20.0535 44.3181 20.05 44.3281 20.0434C44.3381 20.0369 44.3459 20.0275 44.3505 20.0166C44.3551 20.0057 44.3563 19.9936 44.354 19.982C44.3516 19.9704 44.3458 19.9597 44.3373 19.9514C44.3288 19.943 44.318 19.9373 44.3062 19.935C44.2943 19.9327 44.2821 19.9339 44.271 19.9384C44.2599 19.9429 44.2503 19.9506 44.2436 19.9604C44.237 19.9703 44.2334 19.9818 44.2334 19.9937C44.2334 20.0096 44.2398 20.0248 44.2512 20.036C44.2626 20.0472 44.2781 20.0535 44.2943 20.0535Z" fill="white"/>
<path d="M44.7274 20.4736C44.7435 20.4736 44.759 20.4673 44.7705 20.4561C44.7819 20.4448 44.7883 20.4296 44.7883 20.4137C44.7883 20.3979 44.7819 20.3827 44.7705 20.3714C44.759 20.3602 44.7435 20.3539 44.7274 20.3539C44.7194 20.3537 44.7114 20.3552 44.7039 20.3581C44.6965 20.3611 44.6897 20.3655 44.684 20.3711C44.6783 20.3767 44.6738 20.3833 44.6708 20.3907C44.6678 20.398 44.6664 20.4058 44.6665 20.4137C44.6665 20.4296 44.6729 20.4448 44.6844 20.4561C44.6958 20.4673 44.7113 20.4736 44.7274 20.4736Z" fill="white"/>
<path d="M44.0863 20.2524C44.0983 20.2524 44.1101 20.2489 44.1201 20.2423C44.1301 20.2357 44.1379 20.2264 44.1425 20.2154C44.1471 20.2045 44.1483 20.1925 44.146 20.1809C44.1436 20.1693 44.1378 20.1586 44.1293 20.1502C44.1208 20.1418 44.11 20.1361 44.0982 20.1338C44.0863 20.1315 44.0741 20.1327 44.063 20.1372C44.0518 20.1418 44.0423 20.1494 44.0357 20.1593C44.029 20.1691 44.0254 20.1807 44.0254 20.1925C44.0254 20.2084 44.0318 20.2236 44.0432 20.2349C44.0546 20.2461 44.0701 20.2524 44.0863 20.2524Z" fill="white"/>
<path d="M44.0863 20.6815C44.1199 20.6815 44.1472 20.6547 44.1472 20.6216C44.1472 20.5886 44.1199 20.5618 44.0863 20.5618C44.0526 20.5618 44.0254 20.5886 44.0254 20.6216C44.0254 20.6547 44.0526 20.6815 44.0863 20.6815Z" fill="white"/>
<path d="M44.0863 21.0902C44.1024 21.0902 44.1179 21.0839 44.1293 21.0726C44.1407 21.0614 44.1472 21.0462 44.1472 21.0303C44.1472 21.0144 44.1407 20.9992 44.1293 20.988C44.1179 20.9768 44.1024 20.9705 44.0863 20.9705C44.0701 20.9705 44.0546 20.9768 44.0432 20.988C44.0318 20.9992 44.0254 21.0144 44.0254 21.0303C44.0254 21.0462 44.0318 21.0614 44.0432 21.0726C44.0546 21.0839 44.0701 21.0902 44.0863 21.0902Z" fill="white"/>
<path d="M44.3045 20.8757C44.3207 20.8757 44.3362 20.8694 44.3476 20.8582C44.359 20.8469 44.3654 20.8317 44.3654 20.8158C44.3654 20.8 44.359 20.7847 44.3476 20.7735C44.3362 20.7623 44.3207 20.756 44.3045 20.756C44.2884 20.756 44.2729 20.7623 44.2615 20.7735C44.2501 20.7847 44.2437 20.8 44.2437 20.8158C44.2437 20.8317 44.2501 20.8469 44.2615 20.8582C44.2729 20.8694 44.2884 20.8757 44.3045 20.8757Z" fill="white"/>
<path d="M44.5228 20.6815C44.5564 20.6815 44.5837 20.6547 44.5837 20.6216C44.5837 20.5886 44.5564 20.5618 44.5228 20.5618C44.4892 20.5618 44.4619 20.5886 44.4619 20.6216C44.4619 20.6547 44.4892 20.6815 44.5228 20.6815Z" fill="white"/>
<path d="M44.3045 20.4669C44.3166 20.4669 44.3283 20.4634 44.3384 20.4568C44.3484 20.4502 44.3562 20.4409 44.3608 20.4299C44.3654 20.419 44.3666 20.407 44.3642 20.3953C44.3619 20.3837 44.3561 20.3731 44.3476 20.3647C44.3391 20.3563 44.3282 20.3506 44.3164 20.3483C44.3046 20.346 44.2924 20.3472 44.2812 20.3517C44.2701 20.3563 44.2606 20.3639 44.2539 20.3738C44.2472 20.3836 44.2437 20.3952 44.2437 20.407C44.2437 20.4229 44.2501 20.4381 44.2615 20.4493C44.2729 20.4606 44.2884 20.4669 44.3045 20.4669Z" fill="white"/>
<path d="M43.8783 21.2957C43.8944 21.2957 43.9099 21.2894 43.9213 21.2782C43.9327 21.267 43.9391 21.2517 43.9391 21.2359C43.9391 21.22 43.9327 21.2048 43.9213 21.1936C43.9099 21.1823 43.8944 21.176 43.8783 21.176C43.8621 21.176 43.8466 21.1823 43.8352 21.1936C43.8238 21.2048 43.8174 21.22 43.8174 21.2359C43.8174 21.2517 43.8238 21.267 43.8352 21.2782C43.8466 21.2894 43.8621 21.2957 43.8783 21.2957Z" fill="white"/>
<path d="M44.9457 19.4348C44.9618 19.4348 44.9773 19.4284 44.9887 19.4172C45.0001 19.406 45.0065 19.3908 45.0065 19.3749C45.0065 19.359 45.0001 19.3438 44.9887 19.3326C44.9773 19.3214 44.9618 19.3151 44.9457 19.3151C44.9295 19.3151 44.914 19.3214 44.9026 19.3326C44.8912 19.3438 44.8848 19.359 44.8848 19.3749C44.8848 19.3908 44.8912 19.406 44.9026 19.4172C44.914 19.4284 44.9295 19.4348 44.9457 19.4348Z" fill="white"/>
<path d="M45.1571 19.6425C45.1732 19.6425 45.1887 19.6362 45.2001 19.625C45.2115 19.6138 45.2179 19.5986 45.2179 19.5827C45.2179 19.5668 45.2115 19.5516 45.2001 19.5404C45.1887 19.5291 45.1732 19.5228 45.1571 19.5228C45.1409 19.5228 45.1254 19.5291 45.114 19.5404C45.1026 19.5516 45.0962 19.5668 45.0962 19.5827C45.0962 19.5986 45.1026 19.6138 45.114 19.625C45.1254 19.6362 45.1409 19.6425 45.1571 19.6425Z" fill="white"/>
<path d="M45.3807 19.8367C45.3887 19.8367 45.3966 19.8352 45.404 19.8322C45.4114 19.8292 45.4181 19.8248 45.4238 19.8192C45.4294 19.8136 45.4339 19.8071 45.437 19.7998C45.44 19.7925 45.4416 19.7847 45.4416 19.7769C45.4416 19.769 45.44 19.7612 45.437 19.754C45.4339 19.7467 45.4294 19.7401 45.4238 19.7346C45.4181 19.729 45.4114 19.7246 45.404 19.7216C45.3966 19.7186 45.3887 19.717 45.3807 19.717C45.3646 19.717 45.3491 19.7233 45.3377 19.7346C45.3262 19.7458 45.3198 19.761 45.3198 19.7769C45.3198 19.7928 45.3262 19.808 45.3377 19.8192C45.3491 19.8304 45.3646 19.8367 45.3807 19.8367Z" fill="white"/>
<path d="M45.3807 19.4348C45.3969 19.4348 45.4123 19.4284 45.4238 19.4172C45.4352 19.406 45.4416 19.3908 45.4416 19.3749C45.4416 19.359 45.4352 19.3438 45.4238 19.3326C45.4123 19.3214 45.3969 19.3151 45.3807 19.3151C45.3646 19.3151 45.3491 19.3214 45.3377 19.3326C45.3262 19.3438 45.3198 19.359 45.3198 19.3749C45.3198 19.3908 45.3262 19.406 45.3377 19.4172C45.3491 19.4284 45.3646 19.4348 45.3807 19.4348Z" fill="white"/>
<path d="M45.5921 19.6425C45.6083 19.6425 45.6238 19.6362 45.6352 19.625C45.6466 19.6138 45.653 19.5986 45.653 19.5827C45.653 19.5668 45.6466 19.5516 45.6352 19.5404C45.6238 19.5291 45.6083 19.5228 45.5921 19.5228C45.576 19.5228 45.5605 19.5291 45.5491 19.5404C45.5377 19.5516 45.5312 19.5668 45.5312 19.5827C45.5312 19.5986 45.5377 19.6138 45.5491 19.625C45.5605 19.6362 45.576 19.6425 45.5921 19.6425Z" fill="white"/>
<path d="M45.8036 19.4348C45.8197 19.4348 45.8352 19.4284 45.8466 19.4172C45.858 19.406 45.8644 19.3908 45.8644 19.3749C45.8644 19.359 45.858 19.3438 45.8466 19.3326C45.8352 19.3214 45.8197 19.3151 45.8036 19.3151C45.7874 19.3151 45.7719 19.3214 45.7605 19.3326C45.7491 19.3438 45.7427 19.359 45.7427 19.3749C45.7427 19.3908 45.7491 19.406 45.7605 19.4172C45.7719 19.4284 45.7874 19.4348 45.8036 19.4348Z" fill="white"/>
<path d="M46.0497 19.6494C46.0617 19.6494 46.0735 19.6459 46.0835 19.6393C46.0935 19.6327 46.1013 19.6234 46.1059 19.6124C46.1105 19.6015 46.1117 19.5894 46.1094 19.5778C46.107 19.5662 46.1012 19.5556 46.0927 19.5472C46.0842 19.5388 46.0733 19.5331 46.0615 19.5308C46.0497 19.5285 46.0375 19.5297 46.0264 19.5342C46.0152 19.5387 46.0057 19.5464 45.999 19.5563C45.9923 19.5661 45.9888 19.5777 45.9888 19.5895C45.9888 19.6054 45.9952 19.6206 46.0066 19.6318C46.018 19.6431 46.0335 19.6494 46.0497 19.6494Z" fill="white"/>
<path d="M46.2542 19.4416C46.2663 19.4416 46.2781 19.4381 46.2881 19.4315C46.2981 19.4249 46.3059 19.4156 46.3105 19.4046C46.3151 19.3937 46.3163 19.3817 46.314 19.3701C46.3116 19.3585 46.3058 19.3478 46.2973 19.3394C46.2888 19.3311 46.2779 19.3254 46.2661 19.323C46.2543 19.3207 46.2421 19.3219 46.2309 19.3265C46.2198 19.331 46.2103 19.3387 46.2036 19.3485C46.1969 19.3583 46.1934 19.3699 46.1934 19.3817C46.1934 19.3976 46.1998 19.4128 46.2112 19.4241C46.2226 19.4353 46.2381 19.4416 46.2542 19.4416Z" fill="white"/>
<path d="M45.8314 19.8503C45.8434 19.8503 45.8552 19.8468 45.8652 19.8402C45.8752 19.8336 45.883 19.8243 45.8876 19.8133C45.8923 19.8024 45.8935 19.7904 45.8911 19.7788C45.8888 19.7672 45.8829 19.7565 45.8744 19.7481C45.8659 19.7397 45.8551 19.7341 45.8433 19.7317C45.8314 19.7294 45.8192 19.7306 45.8081 19.7351C45.797 19.7397 45.7874 19.7473 45.7808 19.7572C45.7741 19.767 45.7705 19.7786 45.7705 19.7904C45.7705 19.8063 45.7769 19.8215 45.7883 19.8328C45.7997 19.844 45.8152 19.8503 45.8314 19.8503Z" fill="white"/>
<path d="M46.0565 20.0716C46.0726 20.0716 46.0881 20.0653 46.0995 20.0541C46.111 20.0428 46.1174 20.0276 46.1174 20.0118C46.1174 19.9959 46.111 19.9807 46.0995 19.9694C46.0881 19.9582 46.0726 19.9519 46.0565 19.9519C46.0403 19.9519 46.0249 19.9582 46.0134 19.9694C46.002 19.9807 45.9956 19.9959 45.9956 20.0118C45.9956 20.0276 46.002 20.0428 46.0134 20.0541C46.0249 20.0653 46.0403 20.0716 46.0565 20.0716Z" fill="white"/>
<path d="M46.2713 19.8605C46.2875 19.8605 46.303 19.8542 46.3144 19.843C46.3258 19.8318 46.3322 19.8166 46.3322 19.8007C46.3322 19.7848 46.3258 19.7696 46.3144 19.7584C46.303 19.7472 46.2875 19.7408 46.2713 19.7408C46.2552 19.7408 46.2397 19.7472 46.2283 19.7584C46.2169 19.7696 46.2104 19.7848 46.2104 19.8007C46.2104 19.8166 46.2169 19.8318 46.2283 19.843C46.2397 19.8542 46.2552 19.8605 46.2713 19.8605Z" fill="white"/>
<path d="M46.9041 19.2507C46.9162 19.2507 46.928 19.2472 46.938 19.2406C46.948 19.234 46.9558 19.2247 46.9604 19.2137C46.965 19.2028 46.9662 19.1908 46.9639 19.1792C46.9615 19.1675 46.9557 19.1569 46.9472 19.1485C46.9387 19.1401 46.9278 19.1344 46.916 19.1321C46.9042 19.1298 46.892 19.131 46.8808 19.1355C46.8697 19.1401 46.8602 19.1477 46.8535 19.1576C46.8468 19.1674 46.8433 19.179 46.8433 19.1908C46.8436 19.2066 46.8501 19.2217 46.8614 19.2328C46.8728 19.244 46.8881 19.2504 46.9041 19.2507Z" fill="white"/>
<path d="M47.3407 19.2236C47.3527 19.2236 47.3645 19.2201 47.3745 19.2135C47.3845 19.2069 47.3923 19.1976 47.3969 19.1866C47.4015 19.1757 47.4027 19.1637 47.4004 19.1521C47.398 19.1404 47.3922 19.1298 47.3837 19.1214C47.3752 19.113 47.3644 19.1073 47.3525 19.105C47.3407 19.1027 47.3285 19.1039 47.3174 19.1084C47.3063 19.113 47.2967 19.1206 47.29 19.1305C47.2834 19.1403 47.2798 19.1519 47.2798 19.1637C47.2798 19.1796 47.2862 19.1948 47.2976 19.2061C47.309 19.2173 47.3245 19.2236 47.3407 19.2236Z" fill="white"/>
<path d="M47.119 19.4416C47.127 19.4416 47.1349 19.44 47.1423 19.437C47.1497 19.434 47.1564 19.4296 47.162 19.4241C47.1677 19.4185 47.1722 19.4119 47.1752 19.4046C47.1783 19.3974 47.1799 19.3896 47.1799 19.3817C47.1799 19.3739 47.1783 19.3661 47.1752 19.3588C47.1722 19.3516 47.1677 19.345 47.162 19.3394C47.1564 19.3339 47.1497 19.3295 47.1423 19.3265C47.1349 19.3234 47.127 19.3219 47.119 19.3219C47.1028 19.3219 47.0874 19.3282 47.0759 19.3394C47.0645 19.3506 47.0581 19.3659 47.0581 19.3817C47.0581 19.3976 47.0645 19.4128 47.0759 19.4241C47.0874 19.4353 47.1028 19.4416 47.119 19.4416Z" fill="white"/>
<path d="M46.8983 19.6561C46.9103 19.6561 46.9221 19.6526 46.9321 19.646C46.9421 19.6394 46.9499 19.6301 46.9545 19.6191C46.9591 19.6082 46.9604 19.5962 46.958 19.5846C46.9557 19.5729 46.9499 19.5623 46.9413 19.5539C46.9328 19.5455 46.922 19.5398 46.9102 19.5375C46.8984 19.5352 46.8861 19.5364 46.875 19.5409C46.8639 19.5455 46.8544 19.5531 46.8477 19.563C46.841 19.5728 46.8374 19.5844 46.8374 19.5962C46.8373 19.6041 46.8387 19.612 46.8417 19.6193C46.8447 19.6266 46.8492 19.6333 46.8549 19.6389C46.8606 19.6445 46.8674 19.6489 46.8748 19.6518C46.8823 19.6548 46.8903 19.6562 46.8983 19.6561Z" fill="white"/>
<path d="M46.8985 20.0717C46.9064 20.0717 46.9143 20.0702 46.9216 20.0671C46.9289 20.0641 46.9355 20.0597 46.9411 20.0541C46.9467 20.0485 46.951 20.0419 46.954 20.0347C46.9569 20.0274 46.9583 20.0197 46.9582 20.0119C46.9582 20 46.9546 19.9884 46.9478 19.9785C46.9411 19.9686 46.9315 19.961 46.9203 19.9565C46.9091 19.952 46.8968 19.9509 46.885 19.9533C46.8732 19.9557 46.8623 19.9615 46.8539 19.97C46.8454 19.9784 46.8397 19.9892 46.8375 20.0009C46.8352 20.0126 46.8366 20.0246 46.8414 20.0356C46.8462 20.0465 46.8542 20.0557 46.8643 20.0622C46.8745 20.0686 46.8864 20.0719 46.8985 20.0717Z" fill="white"/>
<path d="M47.119 19.8707C47.1351 19.8707 47.1506 19.8644 47.162 19.8532C47.1735 19.8419 47.1799 19.8267 47.1799 19.8108C47.18 19.8029 47.1786 19.7951 47.1756 19.7878C47.1726 19.7804 47.1681 19.7738 47.1624 19.7682C47.1567 19.7626 47.1499 19.7582 47.1425 19.7552C47.135 19.7523 47.127 19.7508 47.119 19.751C47.1028 19.751 47.0874 19.7573 47.0759 19.7685C47.0645 19.7797 47.0581 19.795 47.0581 19.8108C47.0581 19.8267 47.0645 19.8419 47.0759 19.8532C47.0874 19.8644 47.1028 19.8707 47.119 19.8707Z" fill="white"/>
<path d="M47.1673 20.2862C47.1835 20.2862 47.1989 20.2799 47.2104 20.2687C47.2218 20.2575 47.2282 20.2422 47.2282 20.2264C47.2282 20.2105 47.2218 20.1953 47.2104 20.184C47.1989 20.1728 47.1835 20.1665 47.1673 20.1665C47.1512 20.1665 47.1357 20.1728 47.1243 20.184C47.1129 20.1953 47.1064 20.2105 47.1064 20.2264C47.1064 20.2422 47.1129 20.2575 47.1243 20.2687C47.1357 20.2799 47.1512 20.2862 47.1673 20.2862Z" fill="white"/>
<path d="M46.9422 20.4929C46.9584 20.4929 46.9739 20.4866 46.9853 20.4753C46.9967 20.4641 47.0031 20.4489 47.0031 20.433C47.0031 20.4171 46.9967 20.4019 46.9853 20.3907C46.9739 20.3795 46.9584 20.3732 46.9422 20.3732C46.9261 20.3732 46.9106 20.3795 46.8992 20.3907C46.8878 20.4019 46.8813 20.4171 46.8813 20.433C46.8813 20.4489 46.8878 20.4641 46.8992 20.4753C46.9106 20.4866 46.9261 20.4929 46.9422 20.4929Z" fill="white"/>
<path d="M46.4919 20.4871C46.5081 20.4871 46.5237 20.4809 46.5354 20.4697C46.547 20.4585 46.5536 20.4433 46.5539 20.4273C46.5539 20.4193 46.5523 20.4115 46.5492 20.4041C46.546 20.3968 46.5415 20.3901 46.5357 20.3846C46.5299 20.379 46.5231 20.3746 46.5155 20.3717C46.508 20.3687 46.5 20.3673 46.4919 20.3674C46.4839 20.3674 46.4761 20.369 46.4688 20.372C46.4614 20.375 46.4548 20.3795 46.4492 20.385C46.4437 20.3906 46.4393 20.3972 46.4364 20.4045C46.4334 20.4117 46.432 20.4195 46.4321 20.4273C46.432 20.4351 46.4334 20.4429 46.4364 20.4501C46.4393 20.4574 46.4437 20.464 46.4492 20.4695C46.4548 20.4751 46.4614 20.4795 46.4688 20.4826C46.4761 20.4856 46.4839 20.4871 46.4919 20.4871Z" fill="white"/>
<path d="M46.7235 20.7075C46.7315 20.7076 46.7395 20.7062 46.747 20.7032C46.7544 20.7003 46.7612 20.6959 46.7669 20.6903C46.7726 20.6847 46.777 20.678 46.78 20.6707C46.7831 20.6634 46.7845 20.6555 46.7844 20.6476C46.7844 20.6317 46.7779 20.6165 46.7665 20.6053C46.7551 20.5941 46.7396 20.5878 46.7235 20.5878C46.7073 20.5878 46.6919 20.5941 46.6804 20.6053C46.669 20.6165 46.6626 20.6317 46.6626 20.6476C46.6626 20.6635 46.669 20.6787 46.6804 20.6899C46.6919 20.7012 46.7073 20.7075 46.7235 20.7075Z" fill="white"/>
<path d="M46.9144 20.8948C46.9224 20.895 46.9304 20.8936 46.9379 20.8906C46.9453 20.8876 46.9521 20.8832 46.9578 20.8777C46.9635 20.8721 46.968 20.8654 46.971 20.8581C46.974 20.8507 46.9754 20.8429 46.9753 20.835C46.9753 20.8191 46.9689 20.8039 46.9574 20.7927C46.946 20.7814 46.9305 20.7751 46.9144 20.7751C46.8983 20.7751 46.8828 20.7814 46.8714 20.7927C46.8599 20.8039 46.8535 20.8191 46.8535 20.835C46.8535 20.8509 46.8599 20.8661 46.8714 20.8773C46.8828 20.8885 46.8983 20.8948 46.9144 20.8948Z" fill="white"/>
<path d="M47.1532 21.1026C47.1693 21.1026 47.1848 21.0963 47.1962 21.0851C47.2076 21.0739 47.2141 21.0586 47.2141 21.0428C47.2141 21.0269 47.2076 21.0117 47.1962 21.0004C47.1848 20.9892 47.1693 20.9829 47.1532 20.9829C47.137 20.9829 47.1215 20.9892 47.1101 21.0004C47.0987 21.0117 47.0923 21.0269 47.0923 21.0428C47.0923 21.0586 47.0987 21.0739 47.1101 21.0851C47.1215 21.0963 47.137 21.1026 47.1532 21.1026Z" fill="white"/>
<path d="M44.2772 22.2216C44.2933 22.2216 44.3088 22.2153 44.3202 22.2041C44.3317 22.1929 44.3381 22.1776 44.3381 22.1618C44.3381 22.1459 44.3317 22.1307 44.3202 22.1195C44.3088 22.1082 44.2933 22.1019 44.2772 22.1019C44.261 22.1019 44.2455 22.1082 44.2341 22.1195C44.2227 22.1307 44.2163 22.1459 44.2163 22.1618C44.2163 22.1776 44.2227 22.1929 44.2341 22.2041C44.2455 22.2153 44.261 22.2216 44.2772 22.2216Z" fill="white"/>
<path d="M44.7157 21.7936C44.7318 21.7936 44.7473 21.7873 44.7587 21.7761C44.7701 21.7649 44.7766 21.7497 44.7766 21.7338C44.7766 21.7179 44.7701 21.7027 44.7587 21.6915C44.7473 21.6803 44.7318 21.674 44.7157 21.674C44.6995 21.674 44.684 21.6803 44.6726 21.6915C44.6612 21.7027 44.6548 21.7179 44.6548 21.7338C44.6548 21.7497 44.6612 21.7649 44.6726 21.7761C44.684 21.7873 44.6995 21.7936 44.7157 21.7936Z" fill="white"/>
<path d="M44.9217 21.5893C44.9379 21.5893 44.9534 21.583 44.9648 21.5718C44.9762 21.5606 44.9826 21.5453 44.9826 21.5295C44.9826 21.5136 44.9762 21.4984 44.9648 21.4871C44.9534 21.4759 44.9379 21.4696 44.9217 21.4696C44.9056 21.4696 44.8901 21.4759 44.8787 21.4871C44.8673 21.4984 44.8608 21.5136 44.8608 21.5295C44.8608 21.5453 44.8673 21.5606 44.8787 21.5718C44.8901 21.583 44.9056 21.5893 44.9217 21.5893Z" fill="white"/>
<path d="M45.1434 21.3714C45.1596 21.3714 45.175 21.3651 45.1865 21.3539C45.1979 21.3427 45.2043 21.3274 45.2043 21.3116C45.2043 21.2957 45.1979 21.2805 45.1865 21.2692C45.175 21.258 45.1596 21.2517 45.1434 21.2517C45.1273 21.2517 45.1118 21.258 45.1004 21.2692C45.0889 21.2805 45.0825 21.2957 45.0825 21.3116C45.0825 21.3274 45.0889 21.3427 45.1004 21.3539C45.1118 21.3651 45.1273 21.3714 45.1434 21.3714Z" fill="white"/>
<path d="M45.3577 21.1602C45.3657 21.1602 45.3737 21.1587 45.3811 21.1557C45.3884 21.1527 45.3951 21.1483 45.4008 21.1427C45.4065 21.1371 45.4109 21.1305 45.414 21.1233C45.4171 21.116 45.4186 21.1082 45.4186 21.1004C45.4186 21.0925 45.4171 21.0847 45.414 21.0775C45.4109 21.0702 45.4065 21.0636 45.4008 21.0581C45.3951 21.0525 45.3884 21.0481 45.3811 21.0451C45.3737 21.0421 45.3657 21.0405 45.3577 21.0405C45.3498 21.0405 45.3418 21.0421 45.3345 21.0451C45.3271 21.0481 45.3204 21.0525 45.3147 21.0581C45.309 21.0636 45.3046 21.0702 45.3015 21.0775C45.2984 21.0847 45.2969 21.0925 45.2969 21.1004C45.2969 21.1082 45.2984 21.116 45.3015 21.1233C45.3046 21.1305 45.309 21.1371 45.3147 21.1427C45.3204 21.1483 45.3271 21.1527 45.3345 21.1557C45.3418 21.1587 45.3498 21.1602 45.3577 21.1602Z" fill="white"/>
<path d="M45.5728 20.949C45.5848 20.9488 45.5964 20.9451 45.6063 20.9384C45.6161 20.9317 45.6238 20.9223 45.6282 20.9113C45.6326 20.9004 45.6337 20.8884 45.6312 20.8768C45.6287 20.8653 45.6228 20.8547 45.6143 20.8465C45.6057 20.8382 45.5949 20.8326 45.5831 20.8304C45.5713 20.8282 45.5591 20.8294 45.5481 20.834C45.537 20.8386 45.5276 20.8462 45.5209 20.8561C45.5143 20.8659 45.5107 20.8774 45.5107 20.8892C45.5107 20.8971 45.5124 20.905 45.5155 20.9124C45.5186 20.9197 45.5232 20.9263 45.529 20.9319C45.5347 20.9375 45.5416 20.9419 45.5491 20.9448C45.5566 20.9477 45.5647 20.9492 45.5728 20.949Z" fill="white"/>
<path d="M45.7933 21.1669C45.8095 21.1669 45.8249 21.1606 45.8364 21.1494C45.8478 21.1382 45.8542 21.123 45.8542 21.1071C45.8542 21.0912 45.8478 21.076 45.8364 21.0648C45.8249 21.0536 45.8095 21.0472 45.7933 21.0472C45.7772 21.0472 45.7617 21.0536 45.7503 21.0648C45.7388 21.076 45.7324 21.0912 45.7324 21.1071C45.7324 21.123 45.7388 21.1382 45.7503 21.1494C45.7617 21.1606 45.7772 21.1669 45.7933 21.1669Z" fill="white"/>
<path d="M46.0252 21.368C46.0373 21.368 46.0491 21.3645 46.0591 21.3579C46.0691 21.3513 46.0769 21.342 46.0815 21.331C46.0861 21.3201 46.0873 21.3081 46.085 21.2965C46.0826 21.2849 46.0768 21.2742 46.0683 21.2658C46.0598 21.2574 46.0489 21.2518 46.0371 21.2494C46.0253 21.2471 46.0131 21.2483 46.0019 21.2528C45.9908 21.2574 45.9813 21.265 45.9746 21.2749C45.9679 21.2847 45.9644 21.2963 45.9644 21.3081C45.9644 21.324 45.9708 21.3392 45.9822 21.3505C45.9936 21.3617 46.0091 21.368 46.0252 21.368Z" fill="white"/>
<path d="M46.2367 21.5758C46.2487 21.5758 46.2605 21.5722 46.2705 21.5657C46.2805 21.5591 46.2883 21.5497 46.2929 21.5388C46.2975 21.5279 46.2987 21.5158 46.2964 21.5042C46.294 21.4926 46.2882 21.482 46.2797 21.4736C46.2712 21.4652 46.2604 21.4595 46.2485 21.4572C46.2367 21.4549 46.2245 21.4561 46.2134 21.4606C46.2023 21.4651 46.1927 21.4728 46.186 21.4827C46.1794 21.4925 46.1758 21.5041 46.1758 21.5159C46.1758 21.5318 46.1822 21.547 46.1936 21.5582C46.205 21.5695 46.2205 21.5758 46.2367 21.5758Z" fill="white"/>
<path d="M45.7933 21.5825C45.8095 21.5825 45.8249 21.5762 45.8364 21.565C45.8478 21.5537 45.8542 21.5385 45.8542 21.5226C45.8543 21.5147 45.8529 21.5069 45.8499 21.4996C45.8469 21.4922 45.8424 21.4856 45.8367 21.48C45.831 21.4744 45.8243 21.47 45.8168 21.467C45.8093 21.4641 45.8013 21.4626 45.7933 21.4628C45.7772 21.4628 45.7617 21.4691 45.7503 21.4803C45.7388 21.4915 45.7324 21.5068 45.7324 21.5226C45.7324 21.5385 45.7388 21.5537 45.7503 21.565C45.7617 21.5762 45.7772 21.5825 45.7933 21.5825Z" fill="white"/>
<path d="M45.5819 21.3747C45.598 21.3747 45.6135 21.3684 45.6249 21.3572C45.6363 21.346 45.6427 21.3307 45.6427 21.3149C45.6429 21.307 45.6414 21.2991 45.6384 21.2918C45.6354 21.2844 45.631 21.2778 45.6253 21.2722C45.6196 21.2666 45.6128 21.2622 45.6054 21.2593C45.5979 21.2563 45.5899 21.2549 45.5819 21.255C45.5657 21.255 45.5502 21.2613 45.5388 21.2725C45.5274 21.2838 45.521 21.299 45.521 21.3149C45.521 21.3307 45.5274 21.346 45.5388 21.3572C45.5502 21.3684 45.5657 21.3747 45.5819 21.3747Z" fill="white"/>
<path d="M45.3639 21.5893C45.3802 21.5893 45.3958 21.583 45.4074 21.5719C45.419 21.5607 45.4257 21.5454 45.426 21.5295C45.426 21.5215 45.4244 21.5136 45.4212 21.5063C45.4181 21.499 45.4135 21.4923 45.4077 21.4867C45.402 21.4812 45.3951 21.4768 45.3876 21.4738C45.3801 21.4709 45.372 21.4695 45.3639 21.4696C45.356 21.4696 45.3481 21.4712 45.3408 21.4742C45.3335 21.4772 45.3269 21.4816 45.3213 21.4872C45.3157 21.4928 45.3114 21.4994 45.3084 21.5066C45.3055 21.5139 45.3041 21.5217 45.3042 21.5295C45.3041 21.5373 45.3055 21.545 45.3084 21.5523C45.3114 21.5595 45.3157 21.5661 45.3213 21.5717C45.3269 21.5773 45.3335 21.5817 45.3408 21.5847C45.3481 21.5878 45.356 21.5893 45.3639 21.5893Z" fill="white"/>
<path d="M45.1537 21.7971C45.1698 21.7971 45.1853 21.7908 45.1967 21.7795C45.2081 21.7683 45.2145 21.7531 45.2145 21.7372C45.2145 21.7214 45.2081 21.7061 45.1967 21.6949C45.1853 21.6837 45.1698 21.6774 45.1537 21.6774C45.1456 21.6772 45.1376 21.6787 45.1302 21.6816C45.1227 21.6846 45.116 21.689 45.1103 21.6946C45.1046 21.7002 45.1001 21.7068 45.0971 21.7141C45.0941 21.7215 45.0926 21.7293 45.0928 21.7372C45.0928 21.7531 45.0992 21.7683 45.1106 21.7795C45.122 21.7908 45.1375 21.7971 45.1537 21.7971Z" fill="white"/>
<path d="M45.5819 21.7971C45.598 21.7971 45.6135 21.7908 45.6249 21.7795C45.6363 21.7683 45.6427 21.7531 45.6427 21.7372C45.6429 21.7293 45.6414 21.7215 45.6384 21.7141C45.6354 21.7068 45.631 21.7002 45.6253 21.6946C45.6196 21.689 45.6128 21.6846 45.6054 21.6816C45.5979 21.6787 45.5899 21.6772 45.5819 21.6774C45.5657 21.6774 45.5502 21.6837 45.5388 21.6949C45.5274 21.7061 45.521 21.7214 45.521 21.7372C45.521 21.7531 45.5274 21.7683 45.5388 21.7795C45.5502 21.7908 45.5657 21.7971 45.5819 21.7971Z" fill="white"/>
<path d="M46.0047 21.7971C46.0209 21.7971 46.0364 21.7908 46.0478 21.7795C46.0592 21.7683 46.0656 21.7531 46.0656 21.7372C46.0658 21.7293 46.0643 21.7215 46.0613 21.7141C46.0583 21.7068 46.0538 21.7002 46.0481 21.6946C46.0424 21.689 46.0357 21.6846 46.0282 21.6816C46.0208 21.6787 46.0128 21.6772 46.0047 21.6774C45.9886 21.6774 45.9731 21.6837 45.9617 21.6949C45.9503 21.7061 45.9438 21.7214 45.9438 21.7372C45.9438 21.7531 45.9503 21.7683 45.9617 21.7795C45.9731 21.7908 45.9886 21.7971 46.0047 21.7971Z" fill="white"/>
<path d="M46.6688 21.9914C46.6849 21.9914 46.7004 21.9851 46.7118 21.9739C46.7233 21.9626 46.7297 21.9474 46.7297 21.9316C46.7297 21.9157 46.7233 21.9005 46.7118 21.8892C46.7004 21.878 46.6849 21.8717 46.6688 21.8717C46.6526 21.8717 46.6372 21.878 46.6257 21.8892C46.6143 21.9005 46.6079 21.9157 46.6079 21.9316C46.6079 21.9474 46.6143 21.9626 46.6257 21.9739C46.6372 21.9851 46.6526 21.9914 46.6688 21.9914Z" fill="white"/>
<path d="M46.8915 22.1922C46.9076 22.1922 46.9231 22.1859 46.9345 22.1747C46.9459 22.1635 46.9523 22.1482 46.9523 22.1324C46.9523 22.1165 46.9459 22.1013 46.9345 22.09C46.9231 22.0788 46.9076 22.0725 46.8915 22.0725C46.8834 22.0724 46.8754 22.0738 46.868 22.0768C46.8605 22.0797 46.8537 22.0841 46.8481 22.0897C46.8424 22.0953 46.8379 22.102 46.8349 22.1093C46.8319 22.1166 46.8304 22.1245 46.8306 22.1324C46.8306 22.1482 46.837 22.1635 46.8484 22.1747C46.8598 22.1859 46.8753 22.1922 46.8915 22.1922Z" fill="white"/>
<path d="M46.6688 22.4125C46.6767 22.4127 46.6846 22.4113 46.692 22.4084C46.6994 22.4055 46.7061 22.4012 46.7118 22.3957C46.7175 22.3903 46.722 22.3838 46.725 22.3766C46.7281 22.3694 46.7297 22.3616 46.7297 22.3538C46.7297 22.3378 46.7233 22.3225 46.7119 22.3111C46.7005 22.2997 46.6851 22.2931 46.6688 22.2928C46.6607 22.2928 46.6527 22.2944 46.6452 22.2975C46.6378 22.3006 46.631 22.3051 46.6254 22.3108C46.6197 22.3164 46.6152 22.3232 46.6122 22.3306C46.6092 22.338 46.6078 22.3459 46.6079 22.3538C46.6079 22.3616 46.6095 22.3694 46.6126 22.3766C46.6156 22.3838 46.6202 22.3903 46.6258 22.3957C46.6315 22.4012 46.6382 22.4055 46.6456 22.4084C46.653 22.4113 46.6609 22.4127 46.6688 22.4125Z" fill="white"/>
<path d="M45.807 22.425C45.8231 22.425 45.8386 22.4187 45.85 22.4075C45.8615 22.3962 45.8679 22.381 45.8679 22.3651C45.8679 22.3493 45.8615 22.334 45.85 22.3228C45.8386 22.3116 45.8231 22.3053 45.807 22.3053C45.7908 22.3053 45.7753 22.3116 45.7639 22.3228C45.7525 22.334 45.7461 22.3493 45.7461 22.3651C45.7461 22.381 45.7525 22.3962 45.7639 22.4075C45.7753 22.4187 45.7908 22.425 45.807 22.425Z" fill="white"/>
<path d="M45.3639 22.425C45.372 22.4251 45.3801 22.4237 45.3876 22.4208C45.3951 22.4178 45.402 22.4134 45.4077 22.4079C45.4135 22.4023 45.4181 22.3956 45.4212 22.3883C45.4244 22.381 45.426 22.3731 45.426 22.3651C45.4257 22.3492 45.419 22.3339 45.4074 22.3228C45.3958 22.3116 45.3802 22.3053 45.3639 22.3053C45.356 22.3053 45.3481 22.3069 45.3408 22.3099C45.3335 22.3129 45.3269 22.3173 45.3213 22.3229C45.3157 22.3285 45.3114 22.3351 45.3084 22.3423C45.3055 22.3496 45.3041 22.3573 45.3042 22.3651C45.3041 22.3729 45.3055 22.3807 45.3084 22.388C45.3114 22.3952 45.3157 22.4018 45.3213 22.4074C45.3269 22.413 45.3335 22.4174 45.3408 22.4204C45.3481 22.4234 45.356 22.425 45.3639 22.425Z" fill="white"/>
<path d="M46.0116 22.6203C46.0196 22.6205 46.0276 22.619 46.035 22.6161C46.0425 22.6131 46.0493 22.6087 46.055 22.6031C46.0607 22.5975 46.0651 22.5909 46.0681 22.5835C46.0711 22.5762 46.0726 22.5684 46.0725 22.5605C46.0725 22.5446 46.066 22.5294 46.0546 22.5181C46.0432 22.5069 46.0277 22.5006 46.0116 22.5006C45.9954 22.5006 45.9799 22.5069 45.9685 22.5181C45.9571 22.5294 45.9507 22.5446 45.9507 22.5605C45.9507 22.5763 45.9571 22.5916 45.9685 22.6028C45.9799 22.614 45.9954 22.6203 46.0116 22.6203Z" fill="white"/>
<path d="M45.5819 22.6203C45.5899 22.6205 45.5979 22.619 45.6054 22.6161C45.6128 22.6131 45.6196 22.6087 45.6253 22.6031C45.631 22.5975 45.6354 22.5909 45.6384 22.5835C45.6414 22.5762 45.6429 22.5684 45.6427 22.5605C45.6427 22.5446 45.6363 22.5294 45.6249 22.5181C45.6135 22.5069 45.598 22.5006 45.5819 22.5006C45.5657 22.5006 45.5502 22.5069 45.5388 22.5181C45.5274 22.5294 45.521 22.5446 45.521 22.5605C45.521 22.5763 45.5274 22.5916 45.5388 22.6028C45.5502 22.614 45.5657 22.6203 45.5819 22.6203Z" fill="white"/>
<path d="M45.1537 22.6203C45.1698 22.6203 45.1853 22.614 45.1967 22.6028C45.2081 22.5916 45.2145 22.5763 45.2145 22.5605C45.2145 22.5446 45.2081 22.5294 45.1967 22.5181C45.1853 22.5069 45.1698 22.5006 45.1537 22.5006C45.1375 22.5006 45.122 22.5069 45.1106 22.5181C45.0992 22.5294 45.0928 22.5446 45.0928 22.5605C45.0926 22.5684 45.0941 22.5762 45.0971 22.5835C45.1001 22.5909 45.1046 22.5975 45.1103 22.6031C45.116 22.6087 45.1227 22.6131 45.1302 22.6161C45.1376 22.619 45.1456 22.6205 45.1537 22.6203Z" fill="white"/>
<path d="M45.8301 22.9816C46.0732 22.8486 46.3337 22.749 46.6044 22.6858C46.7043 22.6677 46.6836 22.7072 46.5883 22.7275C46.3374 22.7879 46.0951 22.8785 45.8669 22.9974C45.8244 23.0313 45.7497 23.0302 45.8301 22.9816Z" fill="white"/>
<path d="M45.4051 23.0166C45.1822 22.8825 44.9367 22.7888 44.6802 22.74C44.5803 22.7219 44.6021 22.7614 44.6963 22.7817C44.933 22.8276 45.1602 22.9123 45.3683 23.0324C45.4154 23.0618 45.4797 23.0708 45.4051 23.0166Z" fill="white"/>
<path d="M48.0469 19.602C48.1526 19.4981 47.986 19.3117 47.8803 19.27C47.901 19.1774 47.5794 18.7675 47.0578 18.7675C46.7201 18.7675 46.4559 18.9278 46.0963 18.9278C45.9159 18.9184 45.74 18.869 45.5817 18.7833C45.4222 18.8689 45.2451 18.9183 45.0636 18.9278C44.7052 18.9278 44.441 18.7675 44.1044 18.7675C43.5818 18.7675 43.2613 19.1774 43.2819 19.27C43.1763 19.3117 43.0074 19.4958 43.1131 19.602C43.4979 19.4676 43.6197 19.7984 43.6197 19.9859C43.6197 20.415 43.2865 20.6386 43.2865 21.4053C43.2865 21.647 43.3497 22.582 44.6455 22.8733C44.8477 22.9185 45.2911 23.0348 45.5817 23.299C45.8712 23.0348 46.3123 22.9185 46.5145 22.8733C47.8103 22.5786 47.8734 21.6436 47.8734 21.4053C47.8734 20.6386 47.5415 20.415 47.5415 19.9859C47.5461 19.7996 47.6667 19.4687 48.0469 19.602ZM43.3968 19.1853C43.4606 19.1783 43.5251 19.1905 43.5818 19.2203C43.63 19.2406 43.6415 19.1988 43.6047 19.1785C43.5528 19.1488 43.4936 19.1336 43.4336 19.1345C43.4488 19.116 43.4653 19.0987 43.483 19.0825C43.5196 19.0897 43.5551 19.1015 43.5886 19.1175C43.6311 19.1333 43.6472 19.0995 43.6151 19.0757C43.5865 19.0619 43.5565 19.0513 43.5255 19.0441C43.6866 18.9119 43.8899 18.8395 44.0998 18.8397C44.4364 18.8397 44.7006 19.0012 45.059 19.0012C45.2056 18.9933 45.3496 18.9597 45.4841 18.9018C45.5312 18.9075 45.5415 18.9978 45.5415 19.0441C45.5397 19.0624 45.5309 19.0793 45.5168 19.0913C45.5026 19.1033 45.4843 19.1094 45.4657 19.1085C45.3826 19.0882 45.2981 19.0738 45.213 19.0656C45.0981 19.0656 44.9706 19.1141 44.8419 19.1141C44.7765 19.1125 44.7118 19.1007 44.6501 19.0791C44.6179 19.0791 44.5536 19.0927 44.5536 19.139C44.5541 19.1474 44.5568 19.1556 44.5614 19.1627C44.5661 19.1698 44.5725 19.1756 44.58 19.1796C44.5723 19.1902 44.5679 19.2028 44.5674 19.2158C44.5675 19.2279 44.5712 19.2397 44.5779 19.2499C44.5846 19.2601 44.5941 19.2682 44.6053 19.2734L44.3859 20.1101C44.407 20.1583 44.4421 20.1993 44.4867 20.2281C44.5313 20.257 44.5835 20.2723 44.6369 20.2723C44.6902 20.2723 44.7425 20.257 44.7871 20.2281C44.8317 20.1993 44.8667 20.1583 44.8879 20.1101L44.6685 19.27C44.6781 19.2644 44.6861 19.2565 44.6917 19.247C44.6974 19.2375 44.7004 19.2267 44.7006 19.2158C44.7004 19.2055 44.6977 19.1954 44.6926 19.1864C44.7404 19.1692 44.7911 19.1611 44.8419 19.1627C44.9706 19.1627 45.0946 19.2124 45.213 19.2124C45.2982 19.2039 45.3827 19.1892 45.4657 19.1683C45.4845 19.1674 45.503 19.1737 45.5171 19.1859C45.5313 19.1982 45.54 19.2154 45.5415 19.2338C45.5415 19.2609 45.4818 19.3151 45.4818 19.3151L45.576 19.4563L45.6702 19.3151C45.6702 19.3151 45.6116 19.2609 45.6116 19.2338C45.6131 19.2154 45.6218 19.1982 45.636 19.1859C45.6501 19.1737 45.6686 19.1674 45.6874 19.1683C45.7704 19.1892 45.8549 19.2039 45.9401 19.2124C46.055 19.2124 46.1825 19.1627 46.3112 19.1627C46.3617 19.1609 46.412 19.169 46.4594 19.1864C46.4546 19.1955 46.4523 19.2056 46.4525 19.2158C46.4524 19.2268 46.4554 19.2376 46.4611 19.2471C46.4667 19.2567 46.4748 19.2645 46.4846 19.27L46.2652 20.1101C46.2865 20.1579 46.3216 20.1986 46.366 20.2272C46.4105 20.2558 46.4625 20.271 46.5156 20.271C46.5688 20.271 46.6207 20.2558 46.6652 20.2272C46.7097 20.1986 46.7447 20.1579 46.7661 20.1101L46.5478 19.2734C46.559 19.2682 46.5685 19.2601 46.5752 19.2499C46.5819 19.2397 46.5856 19.2279 46.5857 19.2158C46.5852 19.2028 46.5808 19.1902 46.5731 19.1796C46.5806 19.1756 46.587 19.1698 46.5916 19.1627C46.5963 19.1556 46.599 19.1474 46.5995 19.139C46.5995 19.0927 46.5352 19.0791 46.503 19.0791C46.4413 19.1007 46.3766 19.1125 46.3112 19.1141C46.1825 19.1141 46.0584 19.0656 45.9401 19.0656C45.8549 19.0738 45.7705 19.0882 45.6874 19.1085C45.6687 19.1094 45.6504 19.1033 45.6363 19.0913C45.6222 19.0793 45.6133 19.0624 45.6116 19.0441C45.6116 18.9967 45.6219 18.9064 45.669 18.9018C45.804 18.9596 45.9483 18.9932 46.0952 19.0012C46.4536 19.0012 46.7167 18.8397 47.0544 18.8397C47.5024 18.8397 47.7712 19.1457 47.7873 19.244C47.761 19.2404 47.7343 19.2404 47.708 19.244C47.6858 19.2012 47.652 19.1652 47.6104 19.1401C47.5748 19.122 47.5495 19.1503 47.5828 19.1819C47.6098 19.2042 47.6345 19.2292 47.6563 19.2564L47.6035 19.2767C47.581 19.244 47.5526 19.2157 47.5196 19.1932C47.4852 19.1683 47.4507 19.1932 47.4909 19.2304C47.5159 19.2506 47.5383 19.2738 47.5575 19.2993C47.4185 19.3772 47.2761 19.5432 47.2761 19.8639C47.2851 20.0353 47.3355 20.2022 47.4231 20.3506C47.3174 20.3359 47.1176 20.3405 47.2761 20.6149C47.0464 20.6623 47.1015 20.8904 47.1762 20.8904C47.2727 20.8904 47.2658 20.8384 47.36 20.8384C47.4289 20.8384 47.4358 20.8825 47.3967 20.8949C47.3744 20.8989 47.3542 20.9105 47.3397 20.9276C47.3252 20.9447 47.3174 20.9664 47.3175 20.9886C47.3175 21.0846 47.4599 21.0349 47.584 21.315C47.5539 21.3031 47.5221 21.2962 47.4898 21.2947C47.4599 21.2947 47.3921 21.3048 47.3921 21.3613C47.3921 21.4177 47.4576 21.4618 47.4921 21.5871L45.576 19.7431L43.6622 21.5837C43.6978 21.464 43.7621 21.4064 43.7621 21.3647C43.7621 21.3229 43.6932 21.298 43.6645 21.298C43.6321 21.2995 43.6003 21.3064 43.5703 21.3184C43.6932 21.0383 43.8356 21.0925 43.8356 20.992C43.836 20.9697 43.8281 20.9479 43.8136 20.9308C43.7991 20.9136 43.7788 20.9021 43.7564 20.8983C43.7185 20.8859 43.7253 20.8418 43.7943 20.8418C43.8885 20.8418 43.8804 20.8938 43.9781 20.8938C44.0516 20.8938 44.1102 20.6679 43.8781 20.6183C44.0367 20.3438 43.8356 20.3393 43.73 20.354C43.8184 20.2058 43.8692 20.0389 43.8781 19.8673C43.8781 19.3332 43.4772 19.2304 43.3669 19.2451C43.3743 19.2235 43.386 19.2035 43.4014 19.1864L43.3968 19.1853ZM44.6122 19.4856V20.1101H44.4479L44.6122 19.4856ZM44.6754 20.1101V19.489L44.8396 20.1135L44.6754 20.1101ZM46.4869 19.4856V20.1101H46.3238L46.4869 19.4856ZM46.5501 20.1101V19.489L46.7144 20.1135L46.5501 20.1101ZM47.3152 21.9259L47.2221 21.8954L47.1291 21.9259V21.8288L47.0705 21.752L47.1635 21.7226L47.221 21.6436L47.2784 21.7226L47.3714 21.752L47.3129 21.8288L47.3152 21.9259ZM45.5806 20.5844L44.0263 22.0862C44.011 22.0721 43.9919 22.0627 43.9712 22.0591L45.5852 20.5053L47.2026 22.0625C47.1826 22.0667 47.1642 22.0765 47.1497 22.0908L45.5806 20.5844ZM47.1164 22.2037C47.1164 22.2342 46.9533 22.5142 46.4846 22.6283C46.2549 22.6836 45.7552 22.8225 45.5817 22.9885C45.4071 22.8225 44.9074 22.6836 44.6788 22.6283C44.209 22.5153 44.0459 22.2342 44.0459 22.2037C44.0459 22.1958 44.0459 22.1845 44.0459 22.1698L45.5794 20.695L47.1153 22.1732L47.1164 22.2037ZM43.7851 21.752L43.8793 21.7226L43.9367 21.6436L43.993 21.7226L44.0872 21.752L44.0286 21.8288V21.9259L43.9356 21.8954L43.8414 21.9259V21.8288L43.7851 21.752ZM47.0395 21.6628L46.9464 21.6323L46.8534 21.6628V21.5668L46.7948 21.4889L46.889 21.4595L46.9464 21.3816L47.0027 21.4595L47.0969 21.4889L47.0383 21.5668L47.0395 21.6628ZM46.7638 21.3037V21.4008L46.6707 21.3692L46.5777 21.4008V21.3037L46.5191 21.2258L46.6133 21.1975L46.6696 21.1185L46.727 21.1975L46.82 21.2258L46.7638 21.3037ZM46.4904 21.0417V21.1377L46.3973 21.1072L46.3043 21.1377V21.0417L46.2457 20.9638L46.3387 20.9344L46.3962 20.8565L46.4536 20.9344L46.5466 20.9638L46.4904 21.0417ZM46.217 20.7786V20.8757L46.1239 20.8441L46.0297 20.8757V20.7786L45.9711 20.7007L46.0653 20.6725L46.1228 20.5934L46.1791 20.6725L46.2733 20.7007L46.217 20.7786ZM45.9424 20.5166V20.6183L45.8494 20.5878L45.7563 20.6183V20.5223L45.6977 20.4444L45.7919 20.415L45.8482 20.3371L45.9057 20.415L45.9987 20.4444L45.9424 20.5166ZM45.6713 20.2535V20.3506L45.5783 20.319L45.4852 20.3506V20.2535L45.4266 20.1756L45.5208 20.1474L45.5783 20.0683L45.6346 20.1474L45.7287 20.1756L45.6713 20.2535ZM45.4553 20.4387L45.3968 20.5166V20.6183L45.3037 20.5878L45.2107 20.6183V20.5223L45.1521 20.4444L45.2463 20.415L45.3026 20.3371L45.36 20.415L45.4553 20.4387ZM45.182 20.7007L45.1234 20.7786V20.8757L45.0303 20.8441L44.9373 20.8757V20.7786L44.8787 20.7007L44.9717 20.6725L45.0292 20.5934L45.0855 20.6725L45.182 20.7007ZM44.9086 20.9638L44.85 21.0417V21.1377L44.7569 21.1072L44.6639 21.1377V21.0417L44.6053 20.9638L44.6995 20.9344L44.7569 20.8565L44.8132 20.9344L44.9086 20.9638ZM44.634 21.2258L44.5754 21.3037V21.4008L44.4824 21.3692L44.3893 21.4008V21.3037L44.3307 21.2258L44.4249 21.1975L44.4812 21.1185L44.5387 21.1975L44.634 21.2258ZM44.3606 21.4889L44.302 21.5668V21.6628L44.209 21.6323L44.1159 21.6628V21.5668L44.0573 21.4889L44.1504 21.4595L44.2078 21.3816L44.2641 21.4595L44.3606 21.4889ZM45.5783 19.9306L43.6484 21.787C43.6468 21.7712 43.6468 21.7553 43.6484 21.7396C43.6484 21.7294 43.6484 21.7215 43.6484 21.7125L45.5817 19.8515L47.5173 21.7147C47.5173 21.7238 47.5173 21.7305 47.5173 21.7396C47.5189 21.7561 47.5189 21.7727 47.5173 21.7893L45.5783 19.9306ZM43.1659 19.5014C43.1303 19.3885 43.3164 19.3242 43.3842 19.3242C43.5749 19.3242 43.7989 19.55 43.7989 19.8188C43.8053 19.8997 43.7812 19.9801 43.7311 20.0446C43.7311 20.0446 43.7472 19.926 43.7472 19.8673C43.7461 19.7768 43.72 19.6883 43.6716 19.6113C43.6233 19.5343 43.5545 19.4718 43.4726 19.4303C43.3784 19.3806 43.3578 19.4371 43.429 19.4676C43.5206 19.5134 43.5953 19.5863 43.6427 19.676C43.6901 19.7657 43.7077 19.8678 43.6932 19.9678C43.6932 19.9915 43.6668 19.9994 43.6668 19.926C43.6817 19.4947 43.2394 19.489 43.1774 19.5026L43.1659 19.5014ZM47.8149 21.3872C47.8149 22.2658 47.0877 22.6576 46.6029 22.801C46.5042 22.8304 45.8919 22.9332 45.5691 23.2222C45.2509 22.9332 44.6398 22.8304 44.5352 22.801C44.0516 22.6576 43.3244 22.2658 43.3244 21.3872C43.3244 20.8475 43.5542 20.424 43.761 20.424C43.8494 20.424 43.8218 20.5369 43.7713 20.6047C43.7414 20.6465 43.707 20.7176 43.7874 20.7018C43.8678 20.686 43.9758 20.7131 43.9758 20.7842C43.9758 20.8181 43.9298 20.8181 43.9057 20.8057C43.8744 20.789 43.8391 20.7808 43.8035 20.782C43.715 20.782 43.6174 20.8373 43.6174 20.8949C43.6174 20.9525 43.7414 20.9322 43.7414 20.9819C43.7414 21.0315 43.4451 21.2235 43.4451 21.4663C43.4451 21.5431 43.4772 21.5137 43.4968 21.4663C43.5163 21.4189 43.5668 21.3534 43.6116 21.3534C43.6564 21.3534 43.6874 21.3714 43.6656 21.411C43.6021 21.5103 43.5667 21.6245 43.5634 21.7418C43.5837 21.9224 43.6567 22.0934 43.7736 22.2342C43.8138 22.2839 43.8264 22.2534 43.8345 22.2342C43.8425 22.215 43.8621 22.1574 43.9023 22.1574C43.9723 22.1574 43.9298 22.486 44.696 22.687C45.0066 22.7566 45.3005 22.8851 45.561 23.0653C45.8212 22.8851 46.1146 22.7566 46.4249 22.687C47.1922 22.486 47.1497 22.1574 47.2198 22.1574C47.26 22.1574 47.2784 22.2161 47.2864 22.2342C47.2945 22.2522 47.3083 22.2839 47.3485 22.2342C47.4747 22.0983 47.5578 21.9291 47.5874 21.7475C47.584 21.6302 47.5487 21.5159 47.4852 21.4166C47.4633 21.3771 47.4909 21.359 47.5392 21.359C47.5874 21.359 47.6379 21.4223 47.654 21.4719C47.6701 21.5216 47.7046 21.5487 47.7046 21.4719C47.7046 21.2292 47.4093 21.0203 47.4093 20.9875C47.4093 20.9548 47.5323 20.9638 47.5323 20.9006C47.5323 20.8373 47.4358 20.7876 47.3473 20.7876C47.3117 20.7864 47.2764 20.7946 47.2451 20.8113C47.221 20.8238 47.175 20.8238 47.175 20.7899C47.175 20.7188 47.283 20.6916 47.3634 20.7075C47.4438 20.7233 47.4093 20.6521 47.3795 20.6103C47.3289 20.5381 47.3014 20.4297 47.3898 20.4297C47.6 20.4252 47.8263 20.8441 47.8263 21.3884L47.8149 21.3872ZM47.4829 19.9306C47.4829 20.004 47.4565 19.9961 47.4565 19.9723C47.442 19.8724 47.4595 19.7706 47.5067 19.6809C47.5538 19.5912 47.6282 19.5183 47.7195 19.4721C47.7861 19.4416 47.7712 19.3851 47.677 19.4348C47.5952 19.4763 47.5264 19.5389 47.478 19.6159C47.4296 19.6928 47.4035 19.7813 47.4025 19.8718C47.4025 19.9306 47.4185 20.0491 47.4185 20.0491C47.3685 19.9846 47.3443 19.9042 47.3508 19.8233C47.3508 19.5511 47.5805 19.3287 47.7655 19.3287C47.8332 19.3287 48.0182 19.3919 47.9837 19.506C47.932 19.489 47.4944 19.4947 47.4944 19.9317L47.4829 19.9306Z" fill="white"/>
<path fill-rule="evenodd" clip-rule="evenodd" d="M11.8101 11.4252H18.5968C24.7161 11.4252 28.6184 15.1245 28.6184 20.8971C28.6184 27.2918 24.2934 30.4028 17.401 30.4028H11.8101V11.4252ZM18.1798 15.7783C17.934 15.7783 17.6181 15.8122 17.1953 15.8122V26.0441C20.6416 26.0441 23.3147 24.6958 23.3147 20.7898C23.3147 17.4371 21.1321 15.7783 18.1798 15.7783Z" fill="white"/>
<path fill-rule="evenodd" clip-rule="evenodd" d="M49.6474 16.9504V11.9378C48.2758 11.3845 47.0455 11.074 45.3224 11.074C39.6614 11.074 35.125 15.2905 35.125 20.8564C35.125 26.4223 39.5901 30.5 45.2167 30.5C47.2212 30.5 48.5928 30.0855 49.6474 29.2906V24.2779C48.0655 25.2457 46.9754 25.6612 45.4981 25.6612C42.6492 25.6612 40.4345 23.6219 40.4345 20.6136C40.4345 17.6777 42.6849 15.5321 45.4981 15.5321C47.0455 15.5321 48.1701 16.0505 49.6474 16.9493V16.9504Z" fill="white"/>
<path fill-rule="evenodd" clip-rule="evenodd" d="M0 7.62086V8.52424H3.76212V7.62086C2.67197 7.58586 2.49851 7.44809 2.49851 6.71749V2.18931L4.74889 8.51294H5.69889L8.12503 2.18931V6.61585C8.12503 7.54859 8.12503 7.54859 6.78905 7.6186V8.52198H11.1485V7.6186C9.88489 7.6186 9.84813 7.47971 9.84813 6.82815V2.40047C9.84813 1.67438 9.95382 1.43273 11.1485 1.43273V0.5H7.41971L5.52084 5.58149L3.76212 0.5H0V1.43273C1.05454 1.43273 1.2303 1.43273 1.2303 2.33611V6.58762C1.2303 7.4176 1.2303 7.62538 0 7.62538V7.62086Z" fill="white"/>
<path fill-rule="evenodd" clip-rule="evenodd" d="M18.2441 7.62079V8.52417H21.726V7.62079C20.8816 7.58579 20.8816 7.4819 20.8816 6.34139V5.37364C20.8816 4.43978 21.3044 3.67981 22.1832 3.67981C22.8862 3.67981 23.1022 4.1315 23.1022 4.75144V6.79081C23.1022 7.4819 23.0665 7.62079 22.2222 7.62079V8.52417H25.3479V7.62079C24.6093 7.62079 24.5438 7.55078 24.5438 6.85969V5.44252C24.5438 4.47478 25.0033 3.64481 25.9154 3.64481C26.6185 3.64481 26.7586 4.06036 26.7586 4.88695V6.96133C26.7586 7.54852 26.7586 7.61853 25.9154 7.61853V8.52191H29.3616V7.61853C28.3059 7.61853 28.2359 7.65241 28.2359 7.06521V4.75144C28.2359 3.43816 27.9188 2.67706 26.5484 2.67706C25.7443 2.67706 25.2112 2.98873 24.5438 3.67981C24.1923 3.05761 23.6995 2.64319 22.8552 2.64319C21.9764 2.64319 21.379 3.09487 20.8862 3.74869V2.81596H18.2441V3.64481C19.2998 3.64481 19.4055 3.67981 19.4055 4.50979V6.41027C19.4055 7.62079 19.4055 7.62079 18.2441 7.62079Z" fill="white"/>
<path fill-rule="evenodd" clip-rule="evenodd" d="M0.168945 11.4252V30.4028H5.47842L5.51403 23.1442H10.6834V18.7538H5.54849L5.51403 15.8156H11.0693V11.4252H0.168945Z" fill="white"/>
<path fill-rule="evenodd" clip-rule="evenodd" d="M29.7822 0.502197H32.244V3.43817C32.9114 2.88485 33.3341 2.67708 34.0015 2.67708C35.4087 2.67708 36.3576 3.91922 36.3576 5.65032C36.3576 7.51692 35.4087 8.72631 33.7913 8.72631C33.0171 8.72631 32.5277 8.48466 31.9981 7.93586L31.5053 8.59306H30.7667V2.37106C30.7667 1.43719 30.6966 1.33443 29.7822 1.33443V0.504458V0.502197ZM34.7069 5.64919C34.7069 4.3359 34.2141 3.67983 33.511 3.67983C32.592 3.67983 32.2095 4.40478 32.2095 5.75307C32.2095 6.92859 32.669 7.72356 33.4731 7.72356C34.1417 7.72356 34.7046 7.10136 34.7046 5.64919H34.7069Z" fill="white"/>
<path fill-rule="evenodd" clip-rule="evenodd" d="M43.8428 7.62077V8.52415H47.6405V7.62077C46.5848 7.62077 46.4803 7.65465 46.4803 6.83031V5.58817C46.4803 4.44653 46.8663 3.4099 47.9219 3.4099C48.0425 3.41062 48.1618 3.434 48.2735 3.47878C47.9219 3.65155 47.675 3.89434 47.675 4.26924C47.675 4.72092 48.0276 5.03034 48.4791 5.03034C49.0408 5.03034 49.4279 4.61478 49.4279 3.99258C49.4339 3.81855 49.4033 3.64517 49.3383 3.48321C49.2733 3.32124 49.1751 3.17413 49.0498 3.051C48.9245 2.92787 48.7749 2.83135 48.6101 2.76741C48.4454 2.70347 48.269 2.67348 48.092 2.6793C47.459 2.6793 47.0018 2.99096 46.4389 3.61316V2.82271H43.8428V3.65156C44.7618 3.65156 45.003 3.65156 45.003 4.41265V6.76256C45.003 7.55301 45.003 7.62754 43.8428 7.62754V7.62077Z" fill="white"/>
<path fill-rule="evenodd" clip-rule="evenodd" d="M39.0603 5.82542C39.0603 6.93206 39.5876 7.69203 40.5376 7.69203C41.3808 7.69203 41.7679 7.20872 41.9092 6.44988H42.9637C42.788 7.90206 41.8035 8.69703 40.3963 8.69703C38.7088 8.69703 37.4429 7.69428 37.4429 5.76105C37.4429 3.99834 38.5686 2.68506 40.2561 2.68506C41.9092 2.68506 42.9637 3.9272 42.9637 5.82993L39.0603 5.82542ZM40.2561 3.57375C39.5531 3.57375 39.1304 4.05819 39.1304 4.92204H41.3463C41.3463 4.01867 40.9948 3.57375 40.2561 3.57375Z" fill="white"/>
<path fill-rule="evenodd" clip-rule="evenodd" d="M13.4631 5.82542C13.4631 6.93206 14.0248 7.69203 14.9748 7.69203C15.8191 7.69203 16.2051 7.20872 16.3464 6.44988H17.3665C17.1896 7.90206 16.2407 8.69703 14.8393 8.69703C13.1506 8.69703 11.8525 7.69428 11.8525 5.76105C11.8525 3.99834 13.0128 2.68506 14.7003 2.68506C16.3533 2.68506 17.3734 3.9272 17.3734 5.82993L13.4631 5.82542ZM14.6934 3.57375C13.9903 3.57375 13.5676 4.05819 13.5676 4.92204H15.7502C15.7502 3.98931 15.3987 3.57375 14.6957 3.57375H14.6934Z" fill="white"/>
<path fill-rule="evenodd" clip-rule="evenodd" d="M29.1826 30.4028H34.4921V11.4252H29.1826V30.4028Z" fill="white"/>
</g>
<defs>
<clipPath id="clip0_2166_11393">
<rect width="50" height="30" fill="white" transform="translate(0 0.5)"/>
</clipPath>
</defs>
</svg>
