<?xml version="1.0" encoding="utf-8"?>
<!-- Generator: Adobe Illustrator 27.6.1, SVG Export Plug-In . SVG Version: 6.00 Build 0)  -->
<svg version="1.1" id="Layer_1" xmlns="http://www.w3.org/2000/svg" xmlns:xlink="http://www.w3.org/1999/xlink" x="0px" y="0px"
	 width="1291" height="41" viewBox="0 0 1291 41" fill="none" style="enable-background:new 0 0 1291 41;" xml:space="preserve">
<style type="text/css">
	.st0{fill:#FFFFFF;}
	.st1{fill:#ECD898;}
	.st2{fill:#FFFFFF;stroke:#FFFFFF;stroke-miterlimit:10;}
	.st3{fill:#ECD898;stroke:#ECD898;stroke-miterlimit:10;}
	.st4{fill:#005DAA;}
	.st5{fill:#06357A;}
	.st6{fill:#005DAA;stroke:#005DAA;stroke-miterlimit:10;}
	.st7{fill:#06357A;stroke:#06357A;stroke-miterlimit:10;}
</style>
<path class="st0" d="M34.5,3.5H5.9c-1.3,0-2.3,1.1-2.3,2.4v28.4c0,1.3,1,2.4,2.3,2.4h28.6c1.3,0,2.4-1,2.4-2.4V5.9
	C36.9,4.6,35.8,3.5,34.5,3.5z M13.6,32H8.7V16.2h4.9V32z M11.2,14c-1.6,0-2.9-1.3-2.9-2.8c0-1.6,1.3-2.9,2.9-2.9
	c1.6,0,2.8,1.3,2.8,2.9C14,12.7,12.8,14,11.2,14z M32.1,32h-5v-7.7c0-1.8,0-4.2-2.5-4.2c-2.6,0-3,2-3,4.1V32h-4.9V16.2h4.7v2.2h0.1
	c0.7-1.3,2.3-2.6,4.7-2.6c5,0,5.9,3.3,5.9,7.6V32z"/>
<path class="st1" d="M84.5,3.5H55.9c-1.3,0-2.3,1.1-2.3,2.4v28.4c0,1.3,1,2.4,2.3,2.4h28.6c1.3,0,2.4-1,2.4-2.4V5.9
	C86.9,4.6,85.8,3.5,84.5,3.5z M63.6,32h-4.9V16.2h4.9V32z M61.2,14c-1.6,0-2.9-1.3-2.9-2.8c0-1.6,1.3-2.9,2.9-2.9
	c1.6,0,2.8,1.3,2.8,2.9C64,12.7,62.8,14,61.2,14z M82.1,32h-5v-7.7c0-1.8,0-4.2-2.5-4.2c-2.6,0-3,2-3,4.1V32h-4.9V16.2h4.7v2.2h0.1
	c0.7-1.3,2.3-2.6,4.7-2.6c5,0,5.9,3.3,5.9,7.6V32z"/>
<path class="st0" d="M120.2,11.6c-4.8,0-8.5,3.9-8.5,8.5c0,4.8,3.8,8.5,8.5,8.5c4.7,0,8.5-3.8,8.5-8.5
	C128.8,15.4,124.9,11.6,120.2,11.6z M120.2,25.7c-3,0-5.6-2.4-5.6-5.6c0-3,2.4-5.5,5.6-5.5c3,0,5.5,2.4,5.5,5.5
	C125.7,23.2,123.3,25.7,120.2,25.7z M131.1,11.3c0-1.1-0.9-2-2-2c-1.1,0-2,0.9-2,2c0,1.1,0.9,2,2,2
	C130.2,13.3,131.1,12.4,131.1,11.3z M136.7,13.3c-0.1-2.7-0.7-5-2.7-7c-1.9-1.9-4.3-2.5-7-2.7c-2.7-0.1-11-0.1-13.7,0
	c-2.7,0.1-5,0.7-7,2.7c-1.9,1.9-2.5,4.3-2.7,7c-0.1,2.7-0.1,11,0,13.7c0.1,2.7,0.7,5,2.7,7c2,1.9,4.3,2.5,7,2.7
	c2.7,0.1,11,0.1,13.7,0c2.7-0.1,5-0.7,7-2.7c1.9-2,2.5-4.3,2.7-7C136.9,24.3,136.9,16,136.7,13.3z M133.2,29.9
	c-0.5,1.5-1.7,2.6-3.1,3.2c-2.2,0.9-7.4,0.7-9.8,0.7c-2.4,0-7.6,0.2-9.8-0.7c-1.5-0.6-2.6-1.7-3.2-3.2c-0.9-2.2-0.7-7.3-0.7-9.8
	c0-2.4-0.2-7.6,0.7-9.8c0.6-1.4,1.7-2.5,3.2-3.1c2.2-0.9,7.3-0.7,9.8-0.7c2.4,0,7.6-0.2,9.8,0.7c1.4,0.5,2.5,1.7,3.1,3.1
	c0.9,2.2,0.7,7.4,0.7,9.8C133.8,22.6,134.1,27.8,133.2,29.9z"/>
<path class="st1" d="M170.2,11.6c-4.8,0-8.5,3.9-8.5,8.5c0,4.8,3.8,8.5,8.5,8.5c4.7,0,8.5-3.8,8.5-8.5
	C178.8,15.4,174.9,11.6,170.2,11.6z M170.2,25.7c-3,0-5.6-2.4-5.6-5.6c0-3,2.4-5.5,5.6-5.5c3,0,5.5,2.4,5.5,5.5
	C175.7,23.2,173.3,25.7,170.2,25.7z M181.1,11.3c0-1.1-0.9-2-2-2s-2,0.9-2,2c0,1.1,0.9,2,2,2S181.1,12.4,181.1,11.3z M186.7,13.3
	c-0.1-2.7-0.7-5-2.7-7c-1.9-1.9-4.3-2.5-7-2.7c-2.7-0.1-11-0.1-13.7,0c-2.7,0.1-5,0.7-7,2.7c-1.9,1.9-2.5,4.3-2.7,7
	c-0.1,2.7-0.1,11,0,13.7c0.1,2.7,0.7,5,2.7,7c2,1.9,4.3,2.5,7,2.7c2.7,0.1,11,0.1,13.7,0c2.7-0.1,5-0.7,7-2.7c1.9-2,2.5-4.3,2.7-7
	C186.9,24.3,186.9,16,186.7,13.3z M183.2,29.9c-0.5,1.5-1.7,2.6-3.1,3.2c-2.2,0.9-7.4,0.7-9.8,0.7c-2.4,0-7.6,0.2-9.8-0.7
	c-1.5-0.6-2.6-1.7-3.2-3.2c-0.9-2.2-0.7-7.3-0.7-9.8c0-2.4-0.2-7.6,0.7-9.8c0.6-1.4,1.7-2.5,3.2-3.1c2.2-0.9,7.3-0.7,9.8-0.7
	c2.4,0,7.6-0.2,9.8,0.7c1.4,0.5,2.5,1.7,3.1,3.1c0.9,2.2,0.7,7.4,0.7,9.8C183.8,22.6,184.1,27.8,183.2,29.9z"/>
<path class="st0" d="M238.7,20.1c0-10.2-8.2-18.4-18.4-18.4s-18.4,8.2-18.4,18.4c0,9.2,6.7,16.8,15.5,18.2V25.5h-4.7v-5.3h4.7v-4
	c0-4.6,2.7-7.2,6.9-7.2c2.1,0,4.2,0.4,4.2,0.4v4.5h-2.3c-2.3,0-3,1.4-3,2.9v3.4h5.1l-0.8,5.3h-4.3v12.8
	C231.9,37,238.7,29.3,238.7,20.1z"/>
<path class="st1" d="M288.7,20.1c0-10.2-8.2-18.4-18.4-18.4s-18.4,8.2-18.4,18.4c0,9.2,6.7,16.8,15.5,18.2V25.5h-4.7v-5.3h4.7v-4
	c0-4.6,2.7-7.2,6.9-7.2c2.1,0,4.2,0.4,4.2,0.4v4.5h-2.3c-2.3,0-3,1.4-3,2.9v3.4h5.1l-0.8,5.3h-4.3v12.8
	C281.9,37,288.7,29.3,288.7,20.1z"/>
<path class="st2" d="M323.2,17.8l11.5-13.4H332l-10.1,11.7l-8-11.7h-9.3l12.1,17.7l-12.1,14.1h2.7l10.6-12.3l8.5,12.3h9.3
	L323.2,17.8L323.2,17.8z M319.4,22.2l-1.2-1.8l-9.8-14h4.2l7.9,11.3l1.2,1.8L332,34.2h-4.2L319.4,22.2L319.4,22.2z"/>
<path class="st3" d="M372.3,17.6l11.6-13.5h-2.7l-10.1,11.7l-8-11.7h-9.3l12.1,17.7l-12.1,14.1h2.7l10.6-12.3l8.5,12.3h9.3
	L372.3,17.6L372.3,17.6z M368.5,22c-0.1-0.3-10.4-14.9-11-15.8h4.2c5,7.2,14.3,20.6,19.4,27.8h-4.2L368.5,22L368.5,22z"/>
<path class="st0" d="M427.1,14.7c0.4,0,0.8,0,1.3,0.1c-1.2-5.5-7.1-9.6-13.9-9.6c-7.5,0-13.6,5.1-13.6,11.7c0,3.7,2,6.8,5.4,9.2
	l-1.3,4.1l4.8-2.4c1.8,0.4,3.1,0.7,4.8,0.7c0.5,0,0.8-0.1,1.3-0.1c-0.3-0.9-0.5-1.9-0.5-2.9C415.4,19.5,420.5,14.7,427.1,14.7z
	 M419.7,11c1.1,0,1.7,0.7,1.7,1.8c0,1-0.6,1.7-1.7,1.7c-1.1,0-2-0.7-2-1.7C417.6,11.7,418.7,11,419.7,11z M410.1,14.4
	c-1.1,0-2-0.7-2-1.7c0-1.1,1-1.8,2-1.8s1.7,0.7,1.7,1.8C411.8,13.7,411.2,14.4,410.1,14.4z M439.6,25.4c0-5.5-5.5-9.9-11.7-9.9
	c-6.5,0-11.6,4.4-11.6,9.9s5.1,9.9,11.6,9.9c1.3,0,2.7-0.4,4.1-0.7l3.7,2.1l-1.1-3.4C437.5,31.2,439.6,28.5,439.6,25.4z M424.1,23.6
	c-0.6,0-1.3-0.6-1.3-1.3c0-0.7,0.7-1.4,1.3-1.4c1.1,0,1.8,0.7,1.8,1.4C425.9,23,425.2,23.6,424.1,23.6z M431.7,23.6
	c-0.7,0-1.4-0.6-1.4-1.3c0-0.7,0.7-1.4,1.4-1.4c1,0,1.7,0.7,1.7,1.4C433.4,23,432.7,23.6,431.7,23.6z"/>
<path class="st1" d="M477.1,14.7c0.4,0,0.8,0,1.3,0.1c-1.2-5.5-7.1-9.6-13.9-9.6c-7.5,0-13.6,5.1-13.6,11.7c0,3.7,2,6.8,5.4,9.2
	l-1.3,4.1l4.8-2.4c1.8,0.4,3.1,0.7,4.8,0.7c0.5,0,0.8-0.1,1.3-0.1c-0.3-0.9-0.5-1.9-0.5-2.9C465.4,19.5,470.5,14.7,477.1,14.7z
	 M469.7,11c1.1,0,1.7,0.7,1.7,1.8c0,1-0.6,1.7-1.7,1.7c-1.1,0-2-0.7-2-1.7C467.6,11.7,468.7,11,469.7,11z M460.1,14.4
	c-1.1,0-2-0.7-2-1.7c0-1.1,1-1.8,2-1.8s1.7,0.7,1.7,1.8C461.8,13.7,461.2,14.4,460.1,14.4z M489.6,25.4c0-5.5-5.5-9.9-11.7-9.9
	c-6.5,0-11.6,4.4-11.6,9.9s5.1,9.9,11.6,9.9c1.3,0,2.7-0.4,4.1-0.7l3.7,2.1l-1.1-3.4C487.5,31.2,489.6,28.5,489.6,25.4z M474.1,23.6
	c-0.6,0-1.3-0.6-1.3-1.3c0-0.7,0.7-1.4,1.3-1.4c1.1,0,1.8,0.7,1.8,1.4C475.9,23,475.2,23.6,474.1,23.6z M481.7,23.6
	c-0.7,0-1.4-0.6-1.4-1.3c0-0.7,0.7-1.4,1.4-1.4c1,0,1.7,0.7,1.7,1.4C483.4,23,482.7,23.6,481.7,23.6z"/>
<path class="st0" d="M538.6,11.7c-0.4-1.7-1.8-3-3.4-3.4c-3-0.8-15-0.8-15-0.8s-12,0-15,0.8c-1.6,0.4-3,1.8-3.4,3.4
	c-0.8,3-0.8,9.3-0.8,9.3s0,6.3,0.8,9.3c0.4,1.7,1.8,3,3.4,3.4c3,0.8,15,0.8,15,0.8s12,0,15-0.8c1.6-0.4,3-1.7,3.4-3.4
	c0.8-3,0.8-9.3,0.8-9.3S539.4,14.6,538.6,11.7z M516.3,26.6V15.2l10,5.7L516.3,26.6z"/>
<path class="st1" d="M588.6,11.7c-0.4-1.7-1.8-3-3.4-3.4c-3-0.8-15-0.8-15-0.8s-12,0-15,0.8c-1.6,0.4-3,1.8-3.4,3.4
	c-0.8,3-0.8,9.3-0.8,9.3s0,6.3,0.8,9.3c0.4,1.7,1.8,3,3.4,3.4c3,0.8,15,0.8,15,0.8s12,0,15-0.8c1.6-0.4,3-1.7,3.4-3.4
	c0.8-3,0.8-9.3,0.8-9.3S589.4,14.6,588.6,11.7z M566.3,26.6V15.2l10,5.7L566.3,26.6z"/>
<path class="st4" d="M632.5,14.2c-0.3-1.1-1.2-2-2.2-2.3c-2-0.6-10-0.6-10-0.6s-8,0-10,0.6c-1.1,0.3-2,1.2-2.2,2.3
	c-0.6,2-0.6,6.2-0.6,6.2s0,4.2,0.6,6.2c0.3,1.1,1.2,2,2.2,2.2c2,0.5,10,0.5,10,0.5s8,0,10-0.5c1.1-0.3,2-1.1,2.2-2.2
	c0.6-2,0.6-6.2,0.6-6.2S633,16.2,632.5,14.2z M617.6,24.2v-7.6l6.7,3.8L617.6,24.2z"/>
<path class="st5" d="M682.5,14.2c-0.3-1.1-1.2-2-2.2-2.3c-2-0.6-10-0.6-10-0.6s-8,0-10,0.6c-1.1,0.3-2,1.2-2.2,2.3
	c-0.6,2-0.6,6.2-0.6,6.2s0,4.2,0.6,6.2c0.3,1.1,1.2,2,2.2,2.2c2,0.5,10,0.5,10,0.5s8,0,10-0.5c1.1-0.3,2-1.1,2.2-2.2
	c0.6-2,0.6-6.2,0.6-6.2S683,16.2,682.5,14.2z M667.6,24.2v-7.6l6.7,3.8L667.6,24.2z"/>
<path class="st4" d="M731.9,20.4c0-6.4-5.2-11.6-11.6-11.6s-11.6,5.2-11.6,11.6c0,5.8,4.2,10.6,9.8,11.5v-8.1h-3v-3.4h3v-2.5
	c0-2.9,1.7-4.5,4.4-4.5c1.3,0,2.6,0.2,2.6,0.2v2.9H724c-1.5,0-1.9,0.9-1.9,1.8v2.2h3.2l-0.5,3.4H722v8.1
	C727.6,31,731.9,26.2,731.9,20.4z"/>
<path class="st5" d="M781.9,20.4c0-6.4-5.2-11.6-11.6-11.6s-11.6,5.2-11.6,11.6c0,5.8,4.2,10.6,9.8,11.5v-8.1h-3v-3.4h3v-2.5
	c0-2.9,1.7-4.5,4.4-4.5c1.3,0,2.6,0.2,2.6,0.2v2.9H774c-1.5,0-1.9,0.9-1.9,1.8v2.2h3.2l-0.5,3.4H772v8.1
	C777.6,31,781.9,26.2,781.9,20.4z"/>
<path class="st4" d="M829.2,9.9h-18c-0.8,0-1.5,0.7-1.5,1.5v18c0,0.8,0.7,1.5,1.5,1.5h18c0.8,0,1.5-0.7,1.5-1.5v-18
	C830.8,10.6,830,9.9,829.2,9.9z M816.1,27.9H813v-10h3.1V27.9z M814.5,16.5c-1,0-1.8-0.8-1.8-1.8c0-1,0.8-1.8,1.8-1.8
	c1,0,1.8,0.8,1.8,1.8C816.3,15.7,815.5,16.5,814.5,16.5z M827.8,27.9h-3.1V23c0-1.1,0-2.6-1.6-2.6c-1.6,0-1.9,1.3-1.9,2.6v4.9H818
	v-10h3v1.4h0c0.4-0.8,1.5-1.6,3-1.6c3.1,0,3.8,2.1,3.8,4.8V27.9z"/>
<path class="st5" d="M879.2,9.9h-18c-0.8,0-1.5,0.7-1.5,1.5v18c0,0.8,0.7,1.5,1.5,1.5h18c0.8,0,1.5-0.7,1.5-1.5v-18
	C880.8,10.6,880,9.9,879.2,9.9z M866.1,27.9H863v-10h3.1V27.9z M864.5,16.5c-1,0-1.8-0.8-1.8-1.8c0-1,0.8-1.8,1.8-1.8
	c1,0,1.8,0.8,1.8,1.8C866.3,15.7,865.5,16.5,864.5,16.5z M877.8,27.9h-3.1V23c0-1.1,0-2.6-1.6-2.6c-1.6,0-1.9,1.3-1.9,2.6v4.9H868
	v-10h3v1.4h0c0.4-0.8,1.5-1.6,3-1.6c3.1,0,3.8,2.1,3.8,4.8V27.9z"/>
<path class="st6" d="M921.7,18.9l6.9-8.1H927l-6.1,7l-4.8-7h-5.6l7.3,10.7l-7.3,8.5h1.6l6.4-7.4l5.1,7.4h5.6L921.7,18.9L921.7,18.9z
	 M919.4,21.6l-0.7-1.1l-5.9-8.4h2.5l4.8,6.8l0.7,1.1l6.2,8.9h-2.5L919.4,21.6L919.4,21.6z"/>
<path class="st7" d="M970.1,19.5l7-8.1h-1.6l-6.1,7l-4.8-7H959l7.3,10.7l-7.3,8.5h1.6l6.4-7.4l5.1,7.4h5.6L970.1,19.5L970.1,19.5z
	 M967.9,22.1c-0.1-0.2-6.3-9-6.6-9.5h2.5c3,4.3,8.6,12.4,11.7,16.7h-2.5L967.9,22.1L967.9,22.1z"/>
<path class="st4" d="M1020.2,15c-3,0-5.4,2.4-5.4,5.4c0,3,2.4,5.4,5.4,5.4c3,0,5.4-2.4,5.4-5.4C1025.6,17.4,1023.2,15,1020.2,15z
	 M1020.2,23.9c-1.9,0-3.5-1.5-3.5-3.5c0-1.9,1.6-3.5,3.5-3.5c1.9,0,3.5,1.5,3.5,3.5C1023.7,22.3,1022.2,23.9,1020.2,23.9z
	 M1027.1,14.8c0-0.7-0.6-1.3-1.3-1.3c-0.7,0-1.3,0.6-1.3,1.3s0.6,1.3,1.3,1.3C1026.5,16.1,1027.1,15.5,1027.1,14.8z M1030.7,16.1
	c-0.1-1.7-0.5-3.2-1.7-4.4c-1.2-1.2-2.7-1.6-4.4-1.7c-1.7-0.1-6.9-0.1-8.7,0c-1.7,0.1-3.1,0.5-4.4,1.7c-1.2,1.2-1.6,2.7-1.7,4.4
	c-0.1,1.7-0.1,6.9,0,8.7c0.1,1.7,0.5,3.1,1.7,4.4c1.3,1.2,2.7,1.6,4.4,1.7c1.7,0.1,6.9,0.1,8.7,0c1.7-0.1,3.2-0.5,4.4-1.7
	c1.2-1.3,1.6-2.7,1.7-4.4C1030.8,23,1030.8,17.8,1030.7,16.1z M1028.4,26.6c-0.3,0.9-1.1,1.6-2,2c-1.4,0.6-4.7,0.4-6.2,0.4
	c-1.5,0-4.8,0.1-6.2-0.4c-0.9-0.4-1.6-1.1-2-2c-0.6-1.4-0.4-4.6-0.4-6.2c0-1.5-0.1-4.8,0.4-6.2c0.4-0.9,1.1-1.6,2-2
	c1.4-0.6,4.6-0.4,6.2-0.4c1.5,0,4.8-0.1,6.2,0.4c0.9,0.3,1.6,1.1,2,2c0.6,1.4,0.4,4.7,0.4,6.2C1028.8,21.9,1029,25.2,1028.4,26.6z"
	/>
<path class="st5" d="M1070.2,15c-3,0-5.4,2.4-5.4,5.4c0,3,2.4,5.4,5.4,5.4c2.9,0,5.4-2.4,5.4-5.4C1075.6,17.4,1073.2,15,1070.2,15z
	 M1070.2,23.9c-1.9,0-3.5-1.5-3.5-3.5c0-1.9,1.6-3.5,3.5-3.5c1.9,0,3.5,1.5,3.5,3.5C1073.7,22.3,1072.2,23.9,1070.2,23.9z
	 M1077.1,14.8c0-0.7-0.6-1.3-1.3-1.3c-0.7,0-1.3,0.6-1.3,1.3s0.6,1.3,1.3,1.3C1076.5,16.1,1077.1,15.5,1077.1,14.8z M1080.7,16.1
	c-0.1-1.7-0.5-3.2-1.7-4.4c-1.2-1.2-2.7-1.6-4.4-1.7c-1.7-0.1-6.9-0.1-8.7,0c-1.7,0.1-3.1,0.5-4.4,1.7c-1.2,1.2-1.6,2.7-1.7,4.4
	c-0.1,1.7-0.1,6.9,0,8.7c0.1,1.7,0.5,3.1,1.7,4.4c1.3,1.2,2.7,1.6,4.4,1.7c1.7,0.1,6.9,0.1,8.7,0c1.7-0.1,3.2-0.5,4.4-1.7
	c1.2-1.3,1.6-2.7,1.7-4.4C1080.8,23,1080.8,17.8,1080.7,16.1z M1078.4,26.6c-0.3,0.9-1.1,1.6-2,2c-1.4,0.6-4.7,0.4-6.2,0.4
	c-1.6,0-4.8,0.1-6.2-0.4c-0.9-0.4-1.6-1.1-2-2c-0.6-1.4-0.4-4.6-0.4-6.2c0-1.5-0.1-4.8,0.4-6.2c0.4-0.9,1.1-1.6,2-2
	c1.4-0.6,4.6-0.4,6.2-0.4c1.5,0,4.8-0.1,6.2,0.4c0.9,0.3,1.6,1.1,2,2c0.6,1.4,0.4,4.7,0.4,6.2C1078.8,21.9,1079,25.2,1078.4,26.6z"
	/>
<path class="st4" d="M1124.8,16.2c0.3,0,0.6,0,0.9,0c-0.8-3.7-4.7-6.4-9.2-6.4c-5,0-9.1,3.4-9.1,7.8c0,2.5,1.4,4.5,3.6,6.1l-0.9,2.8
	l3.2-1.6c1.2,0.2,2.1,0.5,3.2,0.5c0.3,0,0.6,0,0.9,0c-0.2-0.6-0.3-1.3-0.3-1.9C1117,19.5,1120.4,16.2,1124.8,16.2z M1119.9,13.8
	c0.7,0,1.1,0.5,1.1,1.2c0,0.7-0.4,1.1-1.1,1.1c-0.7,0-1.4-0.5-1.4-1.1C1118.5,14.2,1119.2,13.8,1119.9,13.8z M1113.5,16.1
	c-0.7,0-1.4-0.5-1.4-1.1c0-0.7,0.7-1.2,1.4-1.2s1.1,0.5,1.1,1.2C1114.6,15.6,1114.2,16.1,1113.5,16.1z M1133.1,23.4
	c0-3.7-3.7-6.6-7.8-6.6c-4.4,0-7.7,3-7.7,6.6s3.4,6.6,7.7,6.6c0.9,0,1.8-0.2,2.8-0.5l2.5,1.4l-0.7-2.3
	C1131.8,27.3,1133.1,25.4,1133.1,23.4z M1122.8,22.2c-0.4,0-0.9-0.4-0.9-0.9s0.5-0.9,0.9-0.9c0.7,0,1.2,0.5,1.2,0.9
	S1123.5,22.2,1122.8,22.2z M1127.9,22.2c-0.5,0-0.9-0.4-0.9-0.9s0.5-0.9,0.9-0.9c0.7,0,1.1,0.5,1.1,0.9S1128.6,22.2,1127.9,22.2z"/>
<path class="st5" d="M1174.8,16.2c0.3,0,0.6,0,0.9,0c-0.8-3.7-4.7-6.4-9.2-6.4c-5,0-9.1,3.4-9.1,7.8c0,2.5,1.4,4.5,3.6,6.1l-0.9,2.8
	l3.2-1.6c1.2,0.2,2.1,0.5,3.2,0.5c0.3,0,0.6,0,0.9,0c-0.2-0.6-0.3-1.3-0.3-1.9C1167,19.5,1170.4,16.2,1174.8,16.2z M1169.9,13.8
	c0.7,0,1.1,0.5,1.1,1.2c0,0.7-0.4,1.1-1.1,1.1c-0.7,0-1.4-0.5-1.4-1.1C1168.5,14.2,1169.2,13.8,1169.9,13.8z M1163.5,16.1
	c-0.7,0-1.4-0.5-1.4-1.1c0-0.7,0.7-1.2,1.4-1.2s1.1,0.5,1.1,1.2C1164.6,15.6,1164.2,16.1,1163.5,16.1z M1183.1,23.4
	c0-3.7-3.7-6.6-7.8-6.6c-4.4,0-7.7,3-7.7,6.6s3.4,6.6,7.7,6.6c0.9,0,1.8-0.2,2.8-0.5l2.5,1.4l-0.7-2.3
	C1181.8,27.3,1183.1,25.4,1183.1,23.4z M1172.8,22.2c-0.4,0-0.9-0.4-0.9-0.9s0.5-0.9,0.9-0.9c0.7,0,1.2,0.5,1.2,0.9
	S1173.5,22.2,1172.8,22.2z M1177.9,22.2c-0.5,0-0.9-0.4-0.9-0.9s0.5-0.9,0.9-0.9c0.7,0,1.1,0.5,1.1,0.9S1178.6,22.2,1177.9,22.2z"/>
<path class="st4" d="M1210.5,11.4c-1.2,0-2.2,1-2.2,2.2c0,0.7,0.3,1.4,0.9,1.8l10.2,7.7c0.5,0.4,1.3,0.4,1.8,0l10.2-7.7
	c0.6-0.4,0.9-1.1,0.9-1.8c0-1.2-1-2.2-2.2-2.2H1210.5L1210.5,11.4z M1208.2,16.6v9.8c0,1.7,1.3,3,3,3h18c1.7,0,3-1.3,3-3v-9.8
	l-10.2,7.6c-1.1,0.8-2.5,0.8-3.6,0L1208.2,16.6z"/>
<path class="st5" d="M1260.5,11.4c-1.2,0-2.2,1-2.2,2.2c0,0.7,0.3,1.4,0.9,1.8l10.2,7.7c0.5,0.4,1.3,0.4,1.8,0l10.2-7.7
	c0.6-0.4,0.9-1.1,0.9-1.8c0-1.2-1-2.2-2.2-2.2H1260.5L1260.5,11.4z M1258.2,16.6v9.8c0,1.7,1.3,3,3,3h18c1.7,0,3-1.3,3-3v-9.8
	l-10.2,7.6c-1.1,0.8-2.5,0.8-3.6,0L1258.2,16.6z"/>
</svg>
