<svg width="38" height="16" viewBox="0 0 38 16" fill="none" xmlns="http://www.w3.org/2000/svg">
<path fill-rule="evenodd" clip-rule="evenodd" d="M8.79006 0.414551H13.9146C18.5351 0.414551 21.4816 3.41194 21.4816 8.0892C21.4816 13.2706 18.2159 15.7913 13.0116 15.7913H8.79006V0.414551ZM13.5997 3.94171C13.4141 3.94171 13.1756 3.96915 12.8564 3.96915V12.2596C15.4585 12.2596 17.4769 11.1671 17.4769 8.00228C17.4769 5.28578 15.8289 3.94171 13.5997 3.94171Z" fill="#003256"/>
<path fill-rule="evenodd" clip-rule="evenodd" d="M37.36 4.89132V0.829827C36.3243 0.381498 35.3954 0.129883 34.0943 0.129883C29.8198 0.129883 26.3945 3.54633 26.3945 8.05615C26.3945 12.566 29.766 15.8699 34.0145 15.8699C35.5281 15.8699 36.5637 15.5341 37.36 14.89V10.8285C36.1656 11.6126 35.3425 11.9493 34.227 11.9493C32.0759 11.9493 30.4036 10.2969 30.4036 7.85944C30.4036 5.48055 32.1028 3.74214 34.227 3.74214C35.3954 3.74214 36.2445 4.1621 37.36 4.8904V4.89132Z" fill="#003256"/>
<path fill-rule="evenodd" clip-rule="evenodd" d="M0 0.414551V15.7913H4.00905L4.03594 9.90997H7.93917V6.35262H4.06196L4.03594 3.9719H8.23062V0.414551H0Z" fill="#003256"/>
<path fill-rule="evenodd" clip-rule="evenodd" d="M21.9075 15.7913H25.9166V0.414551H21.9075V15.7913Z" fill="#003256"/>
</svg>
